<?xml version="1.0" encoding="UTF-8" standalone="no"?>
<!-- Created with Inkscape (http://www.inkscape.org/) -->

<svg
   xmlns:dc="http://purl.org/dc/elements/1.1/"
   xmlns:cc="http://creativecommons.org/ns#"
   xmlns:rdf="http://www.w3.org/1999/02/22-rdf-syntax-ns#"
   xmlns:svg="http://www.w3.org/2000/svg"
   xmlns="http://www.w3.org/2000/svg"
   xmlns:sodipodi="http://sodipodi.sourceforge.net/DTD/sodipodi-0.dtd"
   xmlns:inkscape="http://www.inkscape.org/namespaces/inkscape"
   id="svg2"
   style="fill-rule:evenodd"
   version="1.1"
   viewBox="0 0 520.00002 519.99998"
   inkscape:version="0.92.3 (2405546, 2018-03-11)"
   sodipodi:docname="earth.svg">
  <defs
     id="defs10" />
  <sodipodi:namedview
     pagecolor="#ffffff"
     bordercolor="#666666"
     borderopacity="1"
     objecttolerance="10"
     gridtolerance="10"
     guidetolerance="10"
     inkscape:pageopacity="0"
     inkscape:pageshadow="2"
     inkscape:window-width="1920"
     inkscape:window-height="1012"
     id="namedview8"
     showgrid="false"
     inkscape:zoom="0.45384615"
     inkscape:cx="243.04915"
     inkscape:cy="-57.62851"
     inkscape:window-x="0"
     inkscape:window-y="0"
     inkscape:window-maximized="1"
     inkscape:current-layer="svg2" />
  <path
     inkscape:connector-curvature="0"
     d="m 471.63705,260.74361 a 212.74479,210.398 0 1 1 -425.489573,0 212.74479,210.398 0 1 1 425.489573,0 z"
     style="fill:#f9f9f9;fill-rule:nonzero;stroke-width:0.718593"
     id="path3001" />
  <path
     inkscape:connector-curvature="0"
     d="m 198.48939,180.88858 c 18.05109,5.62957 -20.54076,24.2707 -8.15346,11.56689 3.26393,-4.1633 -1.21499,-9.24839 6.85389,-10.13064 l 0.52135,-1.01439 0.77816,-0.42167 z m -33.65304,-72.91464 c 13.16189,-3.94642 14.24259,-10.334049 27.4971,-16.492473 2.73871,-6.439637 8.97552,-8.8209 14.25747,-12.175454 -11.93401,2.213162 -2.38258,-8.719197 -14.42119,0.594509 5.14767,-8.882087 -16.3147,-2.851496 -1.15925,-3.08748 -7.4828,8.470313 -23.29171,22.091938 -35.10748,28.941618 -2.054,-1.43956 15.06862,-15.636678 0.18544,-3.71341 -4.68703,8.52736 -19.27649,11.51893 -9.34926,1.08218 7.12882,-3.790634 4.43179,-12.618645 10.03969,-7.521574 9.25582,-3.987265 7.14652,-4.968164 16.14105,-9.729615 -7.5864,-1.809822 -17.61203,6.415576 -25.53331,8.390935 20.92773,-17.197778 -13.22391,-2.906977 -17.61534,7.313544 -7.70142,7.75599 -26.02446,23.68281 -7.97015,9.91483 4.27716,2.30527 26.56606,-23.751441 24.32528,-10.10336 -4.95601,4.52845 -6.80486,8.42319 -12.55167,11.42219 -9.27402,9.89664 18.45211,-8.7225 1.39102,5.16744 -11.34281,7.54258 -9.68745,22.44666 -20.99719,29.52455 -7.42673,2.29353 -9.49809,21.41474 -11.48006,14.68083 -10.236481,-9.42038 20.93847,-17.55747 3.14288,-16.75293 -1.35299,-3.51274 -2.27667,5.42392 -6.232018,-0.0641 -4.892176,6.66446 1.117248,15.54903 -8.403338,13.79362 -8.909373,0.0704 11.877786,-10.00992 -4.256572,-7.14776 -2.527368,-1.20283 -6.595086,5.34083 -10.651559,10.75161 -11.637998,8.50504 -15.468822,21.42549 -19.982628,35.84917 -13.112283,41.9001 -12.668261,97.51939 4.081857,136.96042 36.854625,86.78681 116.504008,138.91181 207.689688,135.06693 -8.5778,-3.52224 -28.14535,-15.79956 -10.18686,-23.63733 -10.1571,-7.11129 -5.39731,-17.87497 -19.31949,-24.92806 9.20869,-7.92599 2.0081,-19.56424 -9.58327,-17.06465 -10.30924,1.54994 -15.82933,-10.81528 -26.60243,-5.49826 -15.16454,1.00364 -31.67851,-4.37109 -45.45807,-11.55118 -13.00975,-12.47147 -27.3127,-27.99073 -26.34445,-45.4531 3.42235,-9.43443 5.56217,-15.50272 3.28923,-24.50801 10.93434,-9.67091 15.66396,-25.02811 30.53744,-24.92806 -2.70687,-12.3739 32.4202,-26.72977 8.91847,-27.5004 -0.40297,-12.09773 1.18621,-15.82768 6.11526,-27.76086 -1.51389,-20.54489 21.04762,5.35695 26.3825,-6.51819 10.7574,-12.22093 -19.27071,-25.78633 4.40251,-22.43591 9.1103,0.11846 12.21514,-7.91186 0.29826,-4.27964 -9.20704,-0.6531 -17.39539,1.48205 -5.60856,-6.23202 -9.51463,-2.75649 10.82603,-6.62287 0.77606,-13.02215 -0.54318,-3.67149 4.17885,-5.17554 -0.76608,-4.73946 -2.52439,-3.4513 7.29403,-8.02133 -1.19737,-10.01819 4.50264,-12.88903 3.95295,-2.33562 6.94418,-4.08384 3.64115,-0.71952 8.27187,4.06747 2.3687,9.44435 5.09137,9.22606 11.73722,19.7354 8.701,26.15759 5.38846,-4.30445 15.74417,-7.79543 18.69605,-11.84058 -7.90624,-14.8123 15.92855,-22.04398 5.32379,-8.68777 -4.27476,9.9355 7.83024,8.37522 -0.0575,2.54911 6.4207,1.47536 10.49198,-5.11005 4.82512,-12.17628 -1.03159,-9.89003 -12.28377,8.51662 -14.63783,-3.1323 -7.34182,-17.64097 19.26905,-20.17942 22.47642,-35.19512 -6.372,1.39904 15.08847,-19.72382 24.37407,-9.88424 10.25384,0.49192 30.45393,12.88986 9.30791,10.38035 0.61988,-0.69778 3.20953,11.31387 10.39028,9.79163 8.11592,1.91574 -5.51811,-5.83876 1.67529,-5.18389 -1.52497,-5.86985 5.36299,-9.72465 -1.97966,-14.52042 12.15396,-1.79122 2.20986,4.9451 10.28196,8.63817 8.36612,5.66412 -4.92674,-19.30875 7.16727,-9.88424 15.28691,-16.18984 -18.05689,-1.04564 -18.65884,-15.79791 -6.76616,-11.491646 3.99372,-20.04051 3.89731,-4.23797 2.91309,11.45361 16.02281,8.14337 24.96857,9.81644 3.99867,0.80222 -20.94427,-10.84174 -12.82785,-14.708946 5.7784,-1.825781 8.02175,0.0087 4.47412,-3.651396 -2.40681,-4.214981 -7.29601,-9.207869 -9.60062,-13.579456 -15.19679,-8.478582 18.79113,-0.159385 7.12518,-8.944102 -5.11047,0.159063 4.14379,-9.092108 -8.71837,-7.005868 -9.12188,5.931617 -25.79212,-9.924752 -8.17215,-0.962378 13.65966,1.111956 -14.18637,-11.588386 -20.95749,-12.40284 -21.76864,-2.616916 -39.02843,-0.451653 -60.26292,2.275343 -11.65784,1.497188 -9.69158,9.886717 -0.97883,8.124356 -2.35522,6.736065 -14.18472,4.911194 -1.5239,5.48867 -7.94989,3.36365 16.34446,4.351247 5.26294,11.33785 6.53994,3.083346 16.86952,8.146433 9.83711,9.446003 14.04497,-0.334861 -10.03638,11.341156 -10.70035,17.216794 -9.52538,3.78783 -17.69389,13.97635 -21.55944,10.11741 7.10038,5.45948 -6.87514,6.44485 -10.71605,4.30271 -9.51712,-3.42707 -23.08252,6.02563 -32.4417,12.50206 -16.6504,11.53961 -5.34356,-18.40333 6.99925,-24.29468 z m 197.55243,332.16459 c 5.29734,-10.94427 15.13808,-18.32148 25.35472,-26.35604 13.06349,-4.80163 -8.72168,18.49098 -16.01951,21.33868 -2.90929,2.00454 -5.79287,4.21895 -9.33521,5.01769 z m 2.49298,-15.58045 c -1.41219,15.61931 -23.86638,16.03605 -31.05258,27.52934 -7.26881,3.63643 -22.81213,13.90524 -4.46015,7.22904 46.95302,-17.08202 71.89513,-41.6198 87.03487,-57.15229 34.61219,-35.50602 56.38744,-89.2591 55.13475,-147.7757 -1.64594,-4.2803 -9.63121,-41.87199 -10.74416,-24.03422 -0.12986,18.85562 -0.56595,37.78814 1.00595,56.54372 -5.38614,25.08102 -13.07507,-29.30709 -14.55597,-15.50024 -5.5191,-1.33348 -6.14354,-4.25112 -13.00231,-7.63412 -5.011,7.60964 -16.18819,17.13825 -23.19579,11.40731 -4.83058,14.76847 -17.21101,2.11303 -21.8629,-1.42922 -11.76038,9.97023 16.6967,21.21216 19.83627,13.46865 3.78849,-11.52389 1.44882,-9.0582 8.63817,-4.744 9.13593,1.93617 1.51984,19.39225 -1.25054,27.32925 -7.4651,10.00413 -11.21051,24.18636 -23.60591,32.34826 -7.05193,9.22357 -16.17248,14.2244 -16.08152,-2.34265 -8.3835,-12.13329 -19.21448,-14.85861 -26.0038,-28.60343 -0.73111,-10.25136 -9.3658,-13.03539 -11.77774,-6.79163 -5.84364,-3.83819 8.76964,16.60575 12.26476,19.41044 5.3758,15.29684 15.2125,25.87811 30.50189,30.31833 1.25021,20.54158 33.26276,-31.61897 25.08516,-4.66305 -5.82372,20.09425 -21.57185,34.42863 -32.27385,51.73472 -6.24276,7.14239 -14.81891,15.59451 -9.63866,23.34959 z m -31.1609,-4.98511 c 6.74351,0.23591 15.63833,-11.33455 7.13957,-10.35141 -5.77666,0.13336 -5.60046,6.35157 -7.13957,10.35141 z M 257.06717,96.751847 c 5.51158,-8.081773 10.74086,1.383744 5.45717,1.85315 6.57061,7.504463 -5.6203,-2.515048 -3.98288,9.436083 -1.92029,-0.71124 -10.38697,-18.842397 -1.47429,-11.289067 z m 13.08748,46.117063 c 1.31454,8.20862 -14.95865,13.66628 -1.2469,19.94294 -1.42839,8.41409 -8.03993,22.93037 -15.191,23.19249 -9.59318,6.89217 11.73888,6.0673 15.16206,0.76375 7.88846,3.29403 6.08649,-3.51447 7.65743,-7.78328 -3.41855,-9.5907 11.53134,0.8892 3.18232,-10.45063 -8.50421,7.34297 5.4188,-8.11559 10.87233,-5.72251 -2.4928,-6.46717 -20.35388,10.28857 -17.32098,-3.11642 -11.59748,-7.66686 18.41161,-21.74218 -3.11559,-16.82652 z m 39.32858,79.422 c 0.74067,4.57773 -1.26732,12.13742 -4.85662,17.83694 8.67289,10.468 25.82519,-7.97114 39.09706,0.0131 16.24689,-10.18852 -19.17479,-25.12733 -22.19364,-8.91268 -6.76517,-5.18877 3.91202,-12.54506 -7.06425,-11.09724 -2.70373,-0.46586 -2.73482,-4.89771 -4.98313,2.16041 z m 65.36958,19.04498 c 10.84504,5.914 22.52025,-5.29618 9.33686,-12.2292 -5.72813,-7.373 -7.42566,-13.46039 -15.23565,-16.71242 -3.9489,-1.61724 8.56706,-19.12021 -4.87754,-11.07904 -9.35588,4.27476 -4.76286,16.96874 0.33393,20.9178 13.26029,8.2197 11.90341,3.53837 10.44236,19.10286 z m -133.3636,22.43508 c -8.89615,5.6471 -8.27187,-8.14809 -4.63817,-12.18455 -0.66376,-4.54829 7.1065,-16.36265 4.32686,-2.87142 -2.02696,4.14759 3.35893,10.07193 0.31131,15.05622 z m -54.84205,4.98594 c 6.2402,15.04547 35.18189,-2.0554 50.42912,6.07739 7.34008,-2.73763 12.09773,-1.1972 9.51794,6.68497 -10.56805,3.82231 3.23168,9.3906 6.73656,8.42566 10.22076,1.38821 12.74598,10.64247 23.88787,11.79676 8.72333,2.60178 2.35951,-19.79907 17.73027,-12.38383 3.25343,5.15057 10.51347,2.54821 16.57764,3.95891 10.23978,3.46701 15.61021,-8.87795 25.35719,-7.16231 3.351,-7.66892 2.3849,-30.7731 1.14561,-27.3094 -5.92682,5.38167 -15.6466,5.819 -23.60839,9.68662 -4.0602,-3.06789 -7.90566,3.80676 -9.22441,-7.03589 -2.77832,-5.97676 -3.31983,-16.64709 -14.47329,-6.44947 -3.26939,0.70615 10.30676,8.12551 7.49711,11.99354 -6.84497,-4.47535 -6.17009,-0.88109 -7.43311,5.45667 -6.3319,-3.82263 -11.30643,-20.51595 -20.25218,-28.00313 -9.62461,-4.56218 -10.39772,-13.80188 -17.16801,-15.48536 -5.25409,13.85894 23.01884,23.26112 18.52322,27.28129 -11.27004,-6.89912 5.27584,12.95849 -9.63121,12.38548 0.0991,10.58458 -20.2894,-6.75029 -2.2665,-1.78791 12.81875,-7.56483 -10.28774,-16.51811 -14.4799,-23.82586 -4.0167,-16.2717 -14.63949,8.10517 -22.80717,-5.43096 -0.85323,7.18687 -17.76996,12.69803 -16.1146,23.64891 -6.03646,5.66628 -11.02281,7.63684 -19.94294,7.47892 z m 2.49297,-132.12332 c 0.48967,0.13355 7.47048,-11.83561 6.54374,-4.67421 16.63717,2.12163 -0.89152,17.93781 -9.65934,7.16718 z"
     style="fill:#2c5aa0;fill-opacity:1;stroke-width:0.82685602"
     id="path16" />
  <metadata
     id="metadata5">
    <rdf:RDF>
      <cc:Work>
        <dc:format>image/svg+xml</dc:format>
        <dc:type
           rdf:resource="http://purl.org/dc/dcmitype/StillImage" />
        <cc:license
           rdf:resource="http://creativecommons.org/licenses/publicdomain/" />
        <dc:publisher>
          <cc:Agent
             rdf:about="http://openclipart.org/">
            <dc:title>Openclipart</dc:title>
          </cc:Agent>
        </dc:publisher>
        <dc:title>Earth</dc:title>
        <dc:date>2012-12-17T08:31:20</dc:date>
        <dc:description>Simple Earth planet with focus on Europe. </dc:description>
        <dc:source>https://openclipart.org/detail/173813/earth-by-snagator-173813</dc:source>
        <dc:creator>
          <cc:Agent>
            <dc:title>snagator</dc:title>
          </cc:Agent>
        </dc:creator>
        <dc:subject>
          <rdf:Bag>
            <rdf:li>europe in earth</rdf:li>
            <rdf:li>planet earth</rdf:li>
          </rdf:Bag>
        </dc:subject>
      </cc:Work>
      <cc:License
         rdf:about="http://creativecommons.org/licenses/publicdomain/">
        <cc:permits
           rdf:resource="http://creativecommons.org/ns#Reproduction" />
        <cc:permits
           rdf:resource="http://creativecommons.org/ns#Distribution" />
        <cc:permits
           rdf:resource="http://creativecommons.org/ns#DerivativeWorks" />
      </cc:License>
    </rdf:RDF>
  </metadata>
</svg>
