<?xml version="1.0" encoding="UTF-8" standalone="no"?>
<svg
   xmlns:dc="http://purl.org/dc/elements/1.1/"
   xmlns:cc="http://creativecommons.org/ns#"
   xmlns:rdf="http://www.w3.org/1999/02/22-rdf-syntax-ns#"
   xmlns:svg="http://www.w3.org/2000/svg"
   xmlns="http://www.w3.org/2000/svg"
   xmlns:sodipodi="http://sodipodi.sourceforge.net/DTD/sodipodi-0.dtd"
   xmlns:inkscape="http://www.inkscape.org/namespaces/inkscape"
   viewBox="0 0 200 200"
   version="1.1"
   id="svg15"
   sodipodi:docname="gb.svg"
   width="200"
   height="200"
   inkscape:version="0.92.3 (2405546, 2018-03-11)">
  <metadata
     id="metadata21">
    <rdf:RDF>
      <cc:Work
         rdf:about="">
        <dc:format>image/svg+xml</dc:format>
        <dc:type
           rdf:resource="http://purl.org/dc/dcmitype/StillImage" />
        <dc:title></dc:title>
      </cc:Work>
    </rdf:RDF>
  </metadata>
  <defs
     id="defs19" />
  <sodipodi:namedview
     pagecolor="#ffffff"
     bordercolor="#666666"
     borderopacity="1"
     objecttolerance="10"
     gridtolerance="10"
     guidetolerance="10"
     inkscape:pageopacity="0"
     inkscape:pageshadow="2"
     inkscape:window-width="1920"
     inkscape:window-height="1012"
     id="namedview17"
     showgrid="false"
     inkscape:zoom="1.9740064"
     inkscape:cx="-32.587302"
     inkscape:cy="83.52624"
     inkscape:window-x="0"
     inkscape:window-y="0"
     inkscape:window-maximized="1"
     inkscape:current-layer="svg15" />
  <clipPath
     id="t">
    <path
       d="m 30,15 h 30 v 15 z m 0,0 V 30 H 0 Z m 0,0 H 0 V 0 Z m 0,0 V 0 h 30 z"
       id="path2"
       inkscape:connector-curvature="0" />
  </clipPath>
  <g
     transform="translate(-612.41636,-68.980944)"
     id="g3382">
    <path
       id="path5"
       d="m 709.13086,77.978516 a 90.539932,90.539932 0 0 0 -87.60352,86.955074 l -0.0351,1.08008 a 90.539932,90.539932 0 0 0 87.77539,92.95899 90.539932,90.539932 0 0 0 93.2207,-87.49805 90.539932,90.539932 0 0 0 -87.2207,-93.482422 90.539932,90.539932 0 0 0 -6.13672,-0.01367 z"
       style="fill:#00247d;stroke-width:5.50238943"
       inkscape:connector-curvature="0" />
    <path
       id="path7"
       d="m 773.76953,102.35938 -61.77148,45.5957 -61.76172,-45.58789 a 90.539932,90.539932 0 0 0 -19.62305,26.55078 l 53.58789,39.55469 -53.59179,39.55859 a 90.539932,90.539932 0 0 0 19.63085,26.54492 l 61.75782,-45.58398 61.77539,45.59765 a 90.539932,90.539932 0 0 0 19.59375,-26.57422 l -53.57227,-39.54296 53.57617,-39.54688 a 90.539932,90.539932 0 0 0 -19.60156,-26.5664 z"
       style="color:#000000;font-style:normal;font-variant:normal;font-weight:normal;font-stretch:normal;font-size:medium;line-height:normal;font-family:sans-serif;font-variant-ligatures:normal;font-variant-position:normal;font-variant-caps:normal;font-variant-numeric:normal;font-variant-alternates:normal;font-feature-settings:normal;text-indent:0;text-align:start;text-decoration:none;text-decoration-line:none;text-decoration-style:solid;text-decoration-color:#000000;letter-spacing:normal;word-spacing:normal;text-transform:none;writing-mode:lr-tb;direction:ltr;text-orientation:mixed;dominant-baseline:auto;baseline-shift:baseline;text-anchor:start;white-space:normal;shape-padding:0;clip-rule:nonzero;display:inline;overflow:visible;visibility:visible;opacity:1;isolation:auto;mix-blend-mode:normal;color-interpolation:sRGB;color-interpolation-filters:linearRGB;solid-color:#000000;solid-opacity:1;vector-effect:none;fill:#ffffff;fill-opacity:1;fill-rule:nonzero;stroke:none;stroke-width:33.01433945;stroke-linecap:butt;stroke-linejoin:miter;stroke-miterlimit:4;stroke-dasharray:none;stroke-dashoffset:0;stroke-opacity:1;color-rendering:auto;image-rendering:auto;shape-rendering:auto;text-rendering:auto;enable-background:accumulate"
       inkscape:connector-curvature="0" />
    <path
       id="path9"
       d="m 776.9707,105.56445 -64.97265,47.95899 v 14.94922 l 72.83984,-53.76368 a 90.539932,90.539932 0 0 0 -7.86719,-9.14453 z m -64.97265,62.90821 72.83593,53.76172 a 90.539932,90.539932 0 0 0 6.42969,-10.20508 l -59.00976,-43.55664 z m 0,0 -72.82813,53.75781 a 90.539932,90.539932 0 0 0 7.84766,9.1582 l 64.98047,-47.96484 z m 0,0 -72.83203,-53.75977 a 90.539932,90.539932 0 0 0 -6.42579,10.21094 l 59.00196,43.54883 z"
       clip-path="none"
       style="color:#000000;font-style:normal;font-variant:normal;font-weight:normal;font-stretch:normal;font-size:medium;line-height:normal;font-family:sans-serif;font-variant-ligatures:normal;font-variant-position:normal;font-variant-caps:normal;font-variant-numeric:normal;font-variant-alternates:normal;font-feature-settings:normal;text-indent:0;text-align:start;text-decoration:none;text-decoration-line:none;text-decoration-style:solid;text-decoration-color:#000000;letter-spacing:normal;word-spacing:normal;text-transform:none;writing-mode:lr-tb;direction:ltr;text-orientation:mixed;dominant-baseline:auto;baseline-shift:baseline;text-anchor:start;white-space:normal;shape-padding:0;clip-rule:nonzero;display:inline;overflow:visible;visibility:visible;opacity:1;isolation:auto;mix-blend-mode:normal;color-interpolation:sRGB;color-interpolation-filters:linearRGB;solid-color:#000000;solid-opacity:1;vector-effect:none;fill:#cf142b;fill-opacity:1;fill-rule:nonzero;stroke:none;stroke-width:22.00955963;stroke-linecap:butt;stroke-linejoin:miter;stroke-miterlimit:4;stroke-dasharray:none;stroke-dashoffset:0;stroke-opacity:1;color-rendering:auto;image-rendering:auto;shape-rendering:auto;text-rendering:auto;enable-background:accumulate"
       inkscape:connector-curvature="0" />
    <path
       id="path11"
       d="m 709.13086,77.978516 a 90.539932,90.539932 0 0 0 -24.64453,4.320312 v 58.662112 h -58.64649 a 90.539932,90.539932 0 0 0 -4.3125,23.97265 l -0.0351,1.08008 a 90.539932,90.539932 0 0 0 4.34961,29.97266 h 58.64453 v 58.66601 a 90.539932,90.539932 0 0 0 24.78125,4.32032 90.539932,90.539932 0 0 0 30.24219,-4.33789 v -58.64844 h 58.66015 a 90.539932,90.539932 0 0 0 4.31836,-24.51172 90.539932,90.539932 0 0 0 -4.32226,-30.51367 h -58.6563 V 82.308594 a 90.539932,90.539932 0 0 0 -24.24219,-4.316406 90.539932,90.539932 0 0 0 -6.13672,-0.01367 z"
       style="color:#000000;font-style:normal;font-variant:normal;font-weight:normal;font-stretch:normal;font-size:medium;line-height:normal;font-family:sans-serif;font-variant-ligatures:normal;font-variant-position:normal;font-variant-caps:normal;font-variant-numeric:normal;font-variant-alternates:normal;font-feature-settings:normal;text-indent:0;text-align:start;text-decoration:none;text-decoration-line:none;text-decoration-style:solid;text-decoration-color:#000000;letter-spacing:normal;word-spacing:normal;text-transform:none;writing-mode:lr-tb;direction:ltr;text-orientation:mixed;dominant-baseline:auto;baseline-shift:baseline;text-anchor:start;white-space:normal;shape-padding:0;clip-rule:nonzero;display:inline;overflow:visible;visibility:visible;opacity:1;isolation:auto;mix-blend-mode:normal;color-interpolation:sRGB;color-interpolation-filters:linearRGB;solid-color:#000000;solid-opacity:1;vector-effect:none;fill:#ffffff;fill-opacity:1;fill-rule:nonzero;stroke:none;stroke-width:55.02399826;stroke-linecap:square;stroke-linejoin:miter;stroke-miterlimit:4;stroke-dasharray:none;stroke-dashoffset:0;stroke-opacity:1;color-rendering:auto;image-rendering:auto;shape-rendering:auto;text-rendering:auto;enable-background:accumulate"
       inkscape:connector-curvature="0" />
    <path
       id="path13"
       d="m 709.13086,77.978516 a 90.539932,90.539932 0 0 0 -13.64063,1.58789 V 151.9668 h -72.40234 a 90.539932,90.539932 0 0 0 -1.56055,12.96679 l -0.0351,1.08008 a 90.539932,90.539932 0 0 0 1.5957,18.9668 h 72.40234 v 72.40039 a 90.539932,90.539932 0 0 0 13.77735,1.5918 90.539932,90.539932 0 0 0 19.23828,-1.5918 v -72.40039 h 72.39844 a 90.539932,90.539932 0 0 0 1.58398,-13.50586 90.539932,90.539932 0 0 0 -1.58203,-19.50781 H 728.50586 V 79.566406 a 90.539932,90.539932 0 0 0 -13.23828,-1.574218 90.539932,90.539932 0 0 0 -6.13672,-0.01367 z"
       style="color:#000000;font-style:normal;font-variant:normal;font-weight:normal;font-stretch:normal;font-size:medium;line-height:normal;font-family:sans-serif;font-variant-ligatures:normal;font-variant-position:normal;font-variant-caps:normal;font-variant-numeric:normal;font-variant-alternates:normal;font-feature-settings:normal;text-indent:0;text-align:start;text-decoration:none;text-decoration-line:none;text-decoration-style:solid;text-decoration-color:#000000;letter-spacing:normal;word-spacing:normal;text-transform:none;writing-mode:lr-tb;direction:ltr;text-orientation:mixed;dominant-baseline:auto;baseline-shift:baseline;text-anchor:start;white-space:normal;shape-padding:0;clip-rule:nonzero;display:inline;overflow:visible;visibility:visible;opacity:1;isolation:auto;mix-blend-mode:normal;color-interpolation:sRGB;color-interpolation-filters:linearRGB;solid-color:#000000;solid-opacity:1;vector-effect:none;fill:#cf142b;fill-opacity:1;fill-rule:nonzero;stroke:none;stroke-width:33.01433945;stroke-linecap:butt;stroke-linejoin:miter;stroke-miterlimit:4;stroke-dasharray:none;stroke-dashoffset:0;stroke-opacity:1;color-rendering:auto;image-rendering:auto;shape-rendering:auto;text-rendering:auto;enable-background:accumulate"
       inkscape:connector-curvature="0" />
  </g>
</svg>
