<?xml version="1.0" encoding="UTF-8" standalone="no"?>
<!-- Created with Inkscape (http://www.inkscape.org/) -->

<svg
   width="101.01021mm"
   height="102.64458mm"
   viewBox="0 0 101.01021 102.64458"
   version="1.1"
   id="svg858"
   inkscape:version="1.2 (1:1.2+202205241504+da316b6974)"
   sodipodi:docname="hauts_lieux.svg"
   xmlns:inkscape="http://www.inkscape.org/namespaces/inkscape"
   xmlns:sodipodi="http://sodipodi.sourceforge.net/DTD/sodipodi-0.dtd"
   xmlns="http://www.w3.org/2000/svg"
   xmlns:svg="http://www.w3.org/2000/svg">
  <sodipodi:namedview
     id="namedview860"
     pagecolor="#ffffff"
     bordercolor="#000000"
     borderopacity="0.25"
     inkscape:showpageshadow="2"
     inkscape:pageopacity="0.0"
     inkscape:pagecheckerboard="0"
     inkscape:deskcolor="#d1d1d1"
     inkscape:document-units="mm"
     showgrid="false"
     inkscape:zoom="1.0557596"
     inkscape:cx="514.79521"
     inkscape:cy="201.27688"
     inkscape:window-width="1920"
     inkscape:window-height="1049"
     inkscape:window-x="1920"
     inkscape:window-y="0"
     inkscape:window-maximized="1"
     inkscape:current-layer="layer1" />
  <defs
     id="defs855" />
  <g
     inkscape:label="Calque 1"
     inkscape:groupmode="layer"
     id="layer1"
     transform="translate(-20.621897,-168.67826)">
    <g
       id="g4446-1-8-5-4"
       style="fill:#2c5aa0;fill-opacity:1;stroke:#ffffff;stroke-opacity:1"
       transform="matrix(0.17065499,0,0,0.17065499,1.2164307,155.3036)">
      <ellipse
         transform="translate(84.558,-84.649)"
         style="fill:#ba1447;fill-opacity:1;stroke:#ffffff;stroke-opacity:1"
         id="path4400-5-6-6-7"
         cx="332.96848"
         cy="603.4823"
         rx="136.58353"
         ry="14.765786" />
      <ellipse
         transform="matrix(0.95123,0.30847,-0.30847,0.95123,712.17,-95.806)"
         style="fill:#ffffff;fill-opacity:1;stroke:#ba1447;stroke-width:3.6;stroke-linecap:round;stroke-linejoin:round;stroke-opacity:1"
         id="path4375-4-0-1-6"
         cx="-165.3768"
         cy="622.6778"
         rx="8.8594723"
         ry="78.258667" />
      <ellipse
         transform="matrix(0.95123,0.30847,-0.30847,0.95123,737.45,-95.806)"
         style="fill:#ffffff;fill-opacity:1;stroke:#ba1447;stroke-width:3.6;stroke-linecap:round;stroke-linejoin:round;stroke-opacity:1"
         id="path4377-2-4-1-3"
         cx="-165.3768"
         cy="622.6778"
         rx="8.8594723"
         ry="78.258667" />
      <ellipse
         transform="matrix(0.98814,-0.15355,0.15355,0.98814,531.97,-198.04)"
         style="fill:#ffffff;fill-opacity:1;stroke:#ba1447;stroke-width:3.6;stroke-linecap:round;stroke-linejoin:round;stroke-opacity:1"
         id="path4379-0-8-5-1"
         cx="-165.3768"
         cy="622.6778"
         rx="8.8594723"
         ry="78.258667" />
      <ellipse
         transform="matrix(0.98814,-0.15355,0.15355,0.98814,556.77,-198.04)"
         style="fill:#ffffff;fill-opacity:1;stroke:#ba1447;stroke-width:3.6;stroke-linecap:round;stroke-linejoin:round;stroke-opacity:1"
         id="path4381-4-88-9-7"
         cx="-165.3768"
         cy="622.6778"
         rx="8.8594723"
         ry="78.258667" />
      <path
         inkscape:connector-curvature="0"
         style="fill:#ba1447;fill-opacity:1;stroke:none;stroke-width:3.6;stroke-linecap:round;stroke-linejoin:round;stroke-opacity:1"
         sodipodi:nodetypes="scscscsscscscsscssccscscsscsscscscsscscs"
         d="m 444.12,255.32 c -8.8362,0 -16.556,4.7937 -20.719,11.906 -4.358,-6.0257 -11.433,-9.9375 -19.438,-9.9375 -9.9371,0 -18.452,6.0458 -22.094,14.656 -4.2962,-6.4744 -11.679,-10.75 -20.031,-10.75 -12.726,0 -23.104,9.9139 -23.906,22.438 -3.3759,-1.8135 -7.2433,-2.8438 -11.344,-2.8438 -13.249,0 -23.969,10.751 -23.969,24 0,1.862 0.19235,3.6662 0.59375,5.4062 -12.848,0.4559 -23.125,11.009 -23.125,23.969 0,7.8822 3.7868,14.877 9.6562,19.25 -12.035,1.2879 -21.406,11.435 -21.406,23.812 0,11.426 7.9915,20.991 18.688,23.406 -3.693,4.2196 -5.9688,9.7333 -5.9688,15.781 0,13.249 10.751,23.969 24,23.969 5.3826,0 10.341,-1.7566 14.344,-4.75 -0.71978,2.2809 -1.125,4.7 -1.125,7.2188 0,13.249 10.751,23.969 24,23.969 6.1821,0 11.809,-2.3545 16.062,-6.1875 1.3296,0.5514 2.6721,1.0852 4.0312,1.5938 0.41899,12.883 10.985,23.219 23.969,23.219 9.9962,0 18.551,-6.1202 22.156,-14.812 3.0664,9.7172 12.144,16.75 22.875,16.75 11.724,0 21.47,-8.3843 23.562,-19.5 3.4061,9.1034 12.177,15.594 22.469,15.594 13.25,0 24,-10.751 24,-24 0,-2.4843 -0.3928,-4.8714 -1.0937,-7.125 3.9904,2.9616 8.9614,4.6875 14.312,4.6875 13.249,0 23.969,-10.751 23.969,-24 0,-6.0353 -2.2271,-11.534 -5.9063,-15.75 10.681,-2.4262 18.656,-11.991 18.656,-23.406 0,-9.2736 -5.2678,-17.32 -12.969,-21.312 8.2232,-3.8046 13.938,-12.125 13.938,-21.781 0,-12.612 -9.7294,-22.91 -22.094,-23.875 0.9856,-2.624 1.5312,-5.4691 1.5312,-8.4375 0,-13.249 -10.751,-23.969 -24,-23.969 -1.862,0 -3.6661,0.19235 -5.4062,0.59375 -0.4559,-12.848 -11.009,-23.125 -23.969,-23.125 -3.8662,0 -7.5156,0.93799 -10.75,2.5625 -2.2138,-10.962 -11.885,-19.219 -23.5,-19.219 z"
         id="path3563-0-9-8-5" />
      <g
         transform="translate(100.78,-96.462)"
         id="g4390-5-7-4-9"
         style="fill:#2c5aa0;fill-opacity:1;stroke:#ffffff;stroke-opacity:1">
        <path
           d="m 358.11,450.31 c 5.3105,24.786 -5.5195,40.505 -24.189,35.11 -18.67,-5.3952 -11.257,-31.396 -16.567,-56.182 -5.3105,-24.786 -21.333,-38.971 -2.6635,-33.576 18.67,5.3952 38.11,29.862 43.42,54.648 z"
           inkscape:connector-curvature="0"
           style="fill:#ffffff;fill-opacity:1;stroke:#ba1447;stroke-width:4.255;stroke-linecap:round;stroke-linejoin:round;stroke-opacity:1"
           sodipodi:nodetypes="sssss"
           id="path4385-3-7-8-6" />
        <path
           inkscape:connector-curvature="0"
           style="fill:#ffffff;fill-opacity:1;stroke:#ba1447;stroke-width:4.255;stroke-linecap:round;stroke-linejoin:round;stroke-opacity:1"
           sodipodi:nodetypes="sssss"
           d="m 149.17,449.15 c -6.5429,24.49 3.4877,40.731 22.404,36.276 18.916,-4.4551 12.812,-30.794 19.355,-55.283 6.5429,-24.49 23.255,-37.856 4.3387,-33.401 -18.916,4.4551 -39.555,27.919 -46.098,52.409 z"
           id="path4388-7-6-1-2" />
        <path
           d="m 312.69,446.95 c 0,47.59 -26.304,68.169 -58.752,68.169 -32.448,0 -58.752,-20.579 -58.752,-68.169 0,-47.59 26.304,-104.17 58.752,-104.17 32.448,0 58.752,56.579 58.752,104.17 z"
           inkscape:connector-curvature="0"
           style="fill:#ffffff;fill-opacity:1;stroke:#ba1447;stroke-width:3.6;stroke-linecap:round;stroke-linejoin:round;stroke-opacity:1"
           sodipodi:nodetypes="sssss"
           id="path3568-9-4-0-1" />
        <ellipse
           transform="translate(154.07,-319.86)"
           style="fill:#ffffff;fill-opacity:1;stroke:#ba1447;stroke-width:3.6;stroke-linecap:round;stroke-linejoin:round;stroke-opacity:1"
           id="path3571-0-3-3-7"
           cx="61.199509"
           cy="714.05127"
           rx="33.782131"
           ry="27.906977" />
        <circle
           transform="translate(142.31,-313)"
           style="fill:#ffffff;fill-opacity:1;stroke:#ba1447;stroke-width:3.6;stroke-linecap:round;stroke-linejoin:round;stroke-opacity:1"
           id="path3573-6-0-0-8"
           cx="143.94125"
           cy="708.66571"
           r="36.23011" />
        <path
           d="m 226.94,482.41 c 7.07,7.1232 15.818,10.406 25.406,10.406 7.0217,0 13.593,-1.7639 19.375,-5.5 l 1.5312,2.625 c -6.2766,4.0204 -13.402,6 -20.906,6 -1.1115,0 -2.2182,-0.039 -3.3125,-0.125 -0.7534,7.1038 -0.27662,13.206 3.625,17.344 l -2.625,2.4688 c -5.0042,-5.3069 -5.3819,-12.673 -4.5625,-20.25 -7.6211,-1.2884 -14.673,-4.7876 -20.562,-10.625 0.67575,-0.78775 1.3579,-1.5629 2.0312,-2.3438 z"
           inkscape:connector-curvature="0"
           style="color:#000000;text-indent:0;text-transform:none;fill:#ba1447;fill-opacity:1;stroke:none;stroke-opacity:1"
           id="path3575-5-30-4-5" />
        <path
           d="m 235.51,400.45 c 0,4.4852 -3.636,8.1212 -8.1212,8.1212 -4.4852,0 -8.1212,-3.636 -8.1212,-8.1212 0,-4.4852 3.636,-8.1212 8.1212,-8.1212 4.4852,0 8.1212,3.636 8.1212,8.1212 z"
           inkscape:connector-curvature="0"
           style="fill:#ba1447;fill-opacity:1;stroke:#ffffff;stroke-width:3.6;stroke-linecap:round;stroke-linejoin:round;stroke-opacity:1"
           id="path4370-2-9-4-7" />
        <path
           d="m 276.86,399.71 c 0,4.4852 -3.636,8.1212 -8.1212,8.1212 -4.4852,0 -8.1212,-3.636 -8.1212,-8.1212 0,-4.4852 3.636,-8.1212 8.1212,-8.1212 4.4852,0 8.1212,3.636 8.1212,8.1212 z"
           inkscape:connector-curvature="0"
           style="fill:#ba1447;fill-opacity:1;stroke:#ffffff;stroke-width:3.6;stroke-linecap:round;stroke-linejoin:round;stroke-opacity:1"
           id="path4373-6-2-4-4" />
      </g>
    </g>
    <g
       id="g4446-1-8-5"
       style="fill:#2c5aa0;fill-opacity:1;stroke:#ffffff;stroke-opacity:1"
       transform="matrix(0.17065499,0,0,0.17065499,21.072322,167.09822)">
      <ellipse
         transform="translate(84.558,-84.649)"
         style="fill:#ba1447;fill-opacity:1;stroke:#ffffff;stroke-opacity:1"
         id="path4400-5-6-6"
         cx="332.96848"
         cy="603.4823"
         rx="136.58353"
         ry="14.765786" />
      <ellipse
         transform="matrix(0.95123,0.30847,-0.30847,0.95123,712.17,-95.806)"
         style="fill:#ffffff;fill-opacity:1;stroke:#ba1447;stroke-width:3.6;stroke-linecap:round;stroke-linejoin:round;stroke-opacity:1"
         id="path4375-4-0-1"
         cx="-165.3768"
         cy="622.6778"
         rx="8.8594723"
         ry="78.258667" />
      <ellipse
         transform="matrix(0.95123,0.30847,-0.30847,0.95123,737.45,-95.806)"
         style="fill:#ffffff;fill-opacity:1;stroke:#ba1447;stroke-width:3.6;stroke-linecap:round;stroke-linejoin:round;stroke-opacity:1"
         id="path4377-2-4-1"
         cx="-165.3768"
         cy="622.6778"
         rx="8.8594723"
         ry="78.258667" />
      <ellipse
         transform="matrix(0.98814,-0.15355,0.15355,0.98814,531.97,-198.04)"
         style="fill:#ffffff;fill-opacity:1;stroke:#ba1447;stroke-width:3.6;stroke-linecap:round;stroke-linejoin:round;stroke-opacity:1"
         id="path4379-0-8-5"
         cx="-165.3768"
         cy="622.6778"
         rx="8.8594723"
         ry="78.258667" />
      <ellipse
         transform="matrix(0.98814,-0.15355,0.15355,0.98814,556.77,-198.04)"
         style="fill:#ffffff;fill-opacity:1;stroke:#ba1447;stroke-width:3.6;stroke-linecap:round;stroke-linejoin:round;stroke-opacity:1"
         id="path4381-4-88-9"
         cx="-165.3768"
         cy="622.6778"
         rx="8.8594723"
         ry="78.258667" />
      <path
         inkscape:connector-curvature="0"
         style="fill:#ba1447;fill-opacity:1;stroke:none;stroke-width:3.6;stroke-linecap:round;stroke-linejoin:round;stroke-opacity:1"
         sodipodi:nodetypes="scscscsscscscsscssccscscsscsscscscsscscs"
         d="m 444.12,255.32 c -8.8362,0 -16.556,4.7937 -20.719,11.906 -4.358,-6.0257 -11.433,-9.9375 -19.438,-9.9375 -9.9371,0 -18.452,6.0458 -22.094,14.656 -4.2962,-6.4744 -11.679,-10.75 -20.031,-10.75 -12.726,0 -23.104,9.9139 -23.906,22.438 -3.3759,-1.8135 -7.2433,-2.8438 -11.344,-2.8438 -13.249,0 -23.969,10.751 -23.969,24 0,1.862 0.19235,3.6662 0.59375,5.4062 -12.848,0.4559 -23.125,11.009 -23.125,23.969 0,7.8822 3.7868,14.877 9.6562,19.25 -12.035,1.2879 -21.406,11.435 -21.406,23.812 0,11.426 7.9915,20.991 18.688,23.406 -3.693,4.2196 -5.9688,9.7333 -5.9688,15.781 0,13.249 10.751,23.969 24,23.969 5.3826,0 10.341,-1.7566 14.344,-4.75 -0.71978,2.2809 -1.125,4.7 -1.125,7.2188 0,13.249 10.751,23.969 24,23.969 6.1821,0 11.809,-2.3545 16.062,-6.1875 1.3296,0.5514 2.6721,1.0852 4.0312,1.5938 0.41899,12.883 10.985,23.219 23.969,23.219 9.9962,0 18.551,-6.1202 22.156,-14.812 3.0664,9.7172 12.144,16.75 22.875,16.75 11.724,0 21.47,-8.3843 23.562,-19.5 3.4061,9.1034 12.177,15.594 22.469,15.594 13.25,0 24,-10.751 24,-24 0,-2.4843 -0.3928,-4.8714 -1.0937,-7.125 3.9904,2.9616 8.9614,4.6875 14.312,4.6875 13.249,0 23.969,-10.751 23.969,-24 0,-6.0353 -2.2271,-11.534 -5.9063,-15.75 10.681,-2.4262 18.656,-11.991 18.656,-23.406 0,-9.2736 -5.2678,-17.32 -12.969,-21.312 8.2232,-3.8046 13.938,-12.125 13.938,-21.781 0,-12.612 -9.7294,-22.91 -22.094,-23.875 0.9856,-2.624 1.5312,-5.4691 1.5312,-8.4375 0,-13.249 -10.751,-23.969 -24,-23.969 -1.862,0 -3.6661,0.19235 -5.4062,0.59375 -0.4559,-12.848 -11.009,-23.125 -23.969,-23.125 -3.8662,0 -7.5156,0.93799 -10.75,2.5625 -2.2138,-10.962 -11.885,-19.219 -23.5,-19.219 z"
         id="path3563-0-9-8" />
      <g
         transform="translate(100.78,-96.462)"
         id="g4390-5-7-4"
         style="fill:#2c5aa0;fill-opacity:1;stroke:#ffffff;stroke-opacity:1">
        <path
           d="m 358.11,450.31 c 5.3105,24.786 -5.5195,40.505 -24.189,35.11 -18.67,-5.3952 -11.257,-31.396 -16.567,-56.182 -5.3105,-24.786 -21.333,-38.971 -2.6635,-33.576 18.67,5.3952 38.11,29.862 43.42,54.648 z"
           inkscape:connector-curvature="0"
           style="fill:#ffffff;fill-opacity:1;stroke:#ba1447;stroke-width:4.255;stroke-linecap:round;stroke-linejoin:round;stroke-opacity:1"
           sodipodi:nodetypes="sssss"
           id="path4385-3-7-8" />
        <path
           inkscape:connector-curvature="0"
           style="fill:#ffffff;fill-opacity:1;stroke:#ba1447;stroke-width:4.255;stroke-linecap:round;stroke-linejoin:round;stroke-opacity:1"
           sodipodi:nodetypes="sssss"
           d="m 149.17,449.15 c -6.5429,24.49 3.4877,40.731 22.404,36.276 18.916,-4.4551 12.812,-30.794 19.355,-55.283 6.5429,-24.49 23.255,-37.856 4.3387,-33.401 -18.916,4.4551 -39.555,27.919 -46.098,52.409 z"
           id="path4388-7-6-1" />
        <path
           d="m 312.69,446.95 c 0,47.59 -26.304,68.169 -58.752,68.169 -32.448,0 -58.752,-20.579 -58.752,-68.169 0,-47.59 26.304,-104.17 58.752,-104.17 32.448,0 58.752,56.579 58.752,104.17 z"
           inkscape:connector-curvature="0"
           style="fill:#ffffff;fill-opacity:1;stroke:#ba1447;stroke-width:3.6;stroke-linecap:round;stroke-linejoin:round;stroke-opacity:1"
           sodipodi:nodetypes="sssss"
           id="path3568-9-4-0" />
        <ellipse
           transform="translate(154.07,-319.86)"
           style="fill:#ffffff;fill-opacity:1;stroke:#ba1447;stroke-width:3.6;stroke-linecap:round;stroke-linejoin:round;stroke-opacity:1"
           id="path3571-0-3-3"
           cx="61.199509"
           cy="714.05127"
           rx="33.782131"
           ry="27.906977" />
        <circle
           transform="translate(142.31,-313)"
           style="fill:#ffffff;fill-opacity:1;stroke:#ba1447;stroke-width:3.6;stroke-linecap:round;stroke-linejoin:round;stroke-opacity:1"
           id="path3573-6-0-0"
           cx="143.94125"
           cy="708.66571"
           r="36.23011" />
        <path
           d="m 226.94,482.41 c 7.07,7.1232 15.818,10.406 25.406,10.406 7.0217,0 13.593,-1.7639 19.375,-5.5 l 1.5312,2.625 c -6.2766,4.0204 -13.402,6 -20.906,6 -1.1115,0 -2.2182,-0.039 -3.3125,-0.125 -0.7534,7.1038 -0.27662,13.206 3.625,17.344 l -2.625,2.4688 c -5.0042,-5.3069 -5.3819,-12.673 -4.5625,-20.25 -7.6211,-1.2884 -14.673,-4.7876 -20.562,-10.625 0.67575,-0.78775 1.3579,-1.5629 2.0312,-2.3438 z"
           inkscape:connector-curvature="0"
           style="color:#000000;text-indent:0;text-transform:none;fill:#ba1447;fill-opacity:1;stroke:none;stroke-opacity:1"
           id="path3575-5-30-4" />
        <path
           d="m 235.51,400.45 c 0,4.4852 -3.636,8.1212 -8.1212,8.1212 -4.4852,0 -8.1212,-3.636 -8.1212,-8.1212 0,-4.4852 3.636,-8.1212 8.1212,-8.1212 4.4852,0 8.1212,3.636 8.1212,8.1212 z"
           inkscape:connector-curvature="0"
           style="fill:#ba1447;fill-opacity:1;stroke:#ffffff;stroke-width:3.6;stroke-linecap:round;stroke-linejoin:round;stroke-opacity:1"
           id="path4370-2-9-4" />
        <path
           d="m 276.86,399.71 c 0,4.4852 -3.636,8.1212 -8.1212,8.1212 -4.4852,0 -8.1212,-3.636 -8.1212,-8.1212 0,-4.4852 3.636,-8.1212 8.1212,-8.1212 4.4852,0 8.1212,3.636 8.1212,8.1212 z"
           inkscape:connector-curvature="0"
           style="fill:#ba1447;fill-opacity:1;stroke:#ffffff;stroke-width:3.6;stroke-linecap:round;stroke-linejoin:round;stroke-opacity:1"
           id="path4373-6-2-4" />
      </g>
    </g>
    <g
       id="g4446-1-8"
       style="fill:#2c5aa0;fill-opacity:1;stroke:#ffffff;stroke-opacity:1"
       transform="matrix(-0.17065499,0,0,0.17065499,119.91743,175.45238)">
      <ellipse
         transform="translate(84.558,-84.649)"
         style="fill:#ba1447;fill-opacity:1;stroke:#ffffff;stroke-opacity:1"
         id="path4400-5-6"
         cx="332.96848"
         cy="603.4823"
         rx="136.58353"
         ry="14.765786" />
      <ellipse
         transform="matrix(0.95123,0.30847,-0.30847,0.95123,712.17,-95.806)"
         style="fill:#ffffff;fill-opacity:1;stroke:#ba1447;stroke-width:3.6;stroke-linecap:round;stroke-linejoin:round;stroke-opacity:1"
         id="path4375-4-0"
         cx="-165.3768"
         cy="622.6778"
         rx="8.8594723"
         ry="78.258667" />
      <ellipse
         transform="matrix(0.95123,0.30847,-0.30847,0.95123,737.45,-95.806)"
         style="fill:#ffffff;fill-opacity:1;stroke:#ba1447;stroke-width:3.6;stroke-linecap:round;stroke-linejoin:round;stroke-opacity:1"
         id="path4377-2-4"
         cx="-165.3768"
         cy="622.6778"
         rx="8.8594723"
         ry="78.258667" />
      <ellipse
         transform="matrix(0.98814,-0.15355,0.15355,0.98814,531.97,-198.04)"
         style="fill:#ffffff;fill-opacity:1;stroke:#ba1447;stroke-width:3.6;stroke-linecap:round;stroke-linejoin:round;stroke-opacity:1"
         id="path4379-0-8"
         cx="-165.3768"
         cy="622.6778"
         rx="8.8594723"
         ry="78.258667" />
      <ellipse
         transform="matrix(0.98814,-0.15355,0.15355,0.98814,556.77,-198.04)"
         style="fill:#ffffff;fill-opacity:1;stroke:#ba1447;stroke-width:3.6;stroke-linecap:round;stroke-linejoin:round;stroke-opacity:1"
         id="path4381-4-88"
         cx="-165.3768"
         cy="622.6778"
         rx="8.8594723"
         ry="78.258667" />
      <path
         inkscape:connector-curvature="0"
         style="fill:#ba1447;fill-opacity:1;stroke:none;stroke-width:3.6;stroke-linecap:round;stroke-linejoin:round;stroke-opacity:1"
         sodipodi:nodetypes="scscscsscscscsscssccscscsscsscscscsscscs"
         d="m 444.12,255.32 c -8.8362,0 -16.556,4.7937 -20.719,11.906 -4.358,-6.0257 -11.433,-9.9375 -19.438,-9.9375 -9.9371,0 -18.452,6.0458 -22.094,14.656 -4.2962,-6.4744 -11.679,-10.75 -20.031,-10.75 -12.726,0 -23.104,9.9139 -23.906,22.438 -3.3759,-1.8135 -7.2433,-2.8438 -11.344,-2.8438 -13.249,0 -23.969,10.751 -23.969,24 0,1.862 0.19235,3.6662 0.59375,5.4062 -12.848,0.4559 -23.125,11.009 -23.125,23.969 0,7.8822 3.7868,14.877 9.6562,19.25 -12.035,1.2879 -21.406,11.435 -21.406,23.812 0,11.426 7.9915,20.991 18.688,23.406 -3.693,4.2196 -5.9688,9.7333 -5.9688,15.781 0,13.249 10.751,23.969 24,23.969 5.3826,0 10.341,-1.7566 14.344,-4.75 -0.71978,2.2809 -1.125,4.7 -1.125,7.2188 0,13.249 10.751,23.969 24,23.969 6.1821,0 11.809,-2.3545 16.062,-6.1875 1.3296,0.5514 2.6721,1.0852 4.0312,1.5938 0.41899,12.883 10.985,23.219 23.969,23.219 9.9962,0 18.551,-6.1202 22.156,-14.812 3.0664,9.7172 12.144,16.75 22.875,16.75 11.724,0 21.47,-8.3843 23.562,-19.5 3.4061,9.1034 12.177,15.594 22.469,15.594 13.25,0 24,-10.751 24,-24 0,-2.4843 -0.3928,-4.8714 -1.0937,-7.125 3.9904,2.9616 8.9614,4.6875 14.312,4.6875 13.249,0 23.969,-10.751 23.969,-24 0,-6.0353 -2.2271,-11.534 -5.9063,-15.75 10.681,-2.4262 18.656,-11.991 18.656,-23.406 0,-9.2736 -5.2678,-17.32 -12.969,-21.312 8.2232,-3.8046 13.938,-12.125 13.938,-21.781 0,-12.612 -9.7294,-22.91 -22.094,-23.875 0.9856,-2.624 1.5312,-5.4691 1.5312,-8.4375 0,-13.249 -10.751,-23.969 -24,-23.969 -1.862,0 -3.6661,0.19235 -5.4062,0.59375 -0.4559,-12.848 -11.009,-23.125 -23.969,-23.125 -3.8662,0 -7.5156,0.93799 -10.75,2.5625 -2.2138,-10.962 -11.885,-19.219 -23.5,-19.219 z"
         id="path3563-0-9" />
      <g
         transform="translate(100.78,-96.462)"
         id="g4390-5-7"
         style="fill:#2c5aa0;fill-opacity:1;stroke:#ffffff;stroke-opacity:1">
        <path
           d="m 358.11,450.31 c 5.3105,24.786 -5.5195,40.505 -24.189,35.11 -18.67,-5.3952 -11.257,-31.396 -16.567,-56.182 -5.3105,-24.786 -21.333,-38.971 -2.6635,-33.576 18.67,5.3952 38.11,29.862 43.42,54.648 z"
           inkscape:connector-curvature="0"
           style="fill:#ffffff;fill-opacity:1;stroke:#ba1447;stroke-width:4.255;stroke-linecap:round;stroke-linejoin:round;stroke-opacity:1"
           sodipodi:nodetypes="sssss"
           id="path4385-3-7" />
        <path
           inkscape:connector-curvature="0"
           style="fill:#ffffff;fill-opacity:1;stroke:#ba1447;stroke-width:4.255;stroke-linecap:round;stroke-linejoin:round;stroke-opacity:1"
           sodipodi:nodetypes="sssss"
           d="m 149.17,449.15 c -6.5429,24.49 3.4877,40.731 22.404,36.276 18.916,-4.4551 12.812,-30.794 19.355,-55.283 6.5429,-24.49 23.255,-37.856 4.3387,-33.401 -18.916,4.4551 -39.555,27.919 -46.098,52.409 z"
           id="path4388-7-6" />
        <path
           d="m 312.69,446.95 c 0,47.59 -26.304,68.169 -58.752,68.169 -32.448,0 -58.752,-20.579 -58.752,-68.169 0,-47.59 26.304,-104.17 58.752,-104.17 32.448,0 58.752,56.579 58.752,104.17 z"
           inkscape:connector-curvature="0"
           style="fill:#ffffff;fill-opacity:1;stroke:#ba1447;stroke-width:3.6;stroke-linecap:round;stroke-linejoin:round;stroke-opacity:1"
           sodipodi:nodetypes="sssss"
           id="path3568-9-4" />
        <ellipse
           transform="translate(154.07,-319.86)"
           style="fill:#ffffff;fill-opacity:1;stroke:#ba1447;stroke-width:3.6;stroke-linecap:round;stroke-linejoin:round;stroke-opacity:1"
           id="path3571-0-3"
           cx="61.199509"
           cy="714.05127"
           rx="33.782131"
           ry="27.906977" />
        <circle
           transform="translate(142.31,-313)"
           style="fill:#ffffff;fill-opacity:1;stroke:#ba1447;stroke-width:3.6;stroke-linecap:round;stroke-linejoin:round;stroke-opacity:1"
           id="path3573-6-0"
           cx="143.94125"
           cy="708.66571"
           r="36.23011" />
        <path
           d="m 226.94,482.41 c 7.07,7.1232 15.818,10.406 25.406,10.406 7.0217,0 13.593,-1.7639 19.375,-5.5 l 1.5312,2.625 c -6.2766,4.0204 -13.402,6 -20.906,6 -1.1115,0 -2.2182,-0.039 -3.3125,-0.125 -0.7534,7.1038 -0.27662,13.206 3.625,17.344 l -2.625,2.4688 c -5.0042,-5.3069 -5.3819,-12.673 -4.5625,-20.25 -7.6211,-1.2884 -14.673,-4.7876 -20.562,-10.625 0.67575,-0.78775 1.3579,-1.5629 2.0312,-2.3438 z"
           inkscape:connector-curvature="0"
           style="color:#000000;text-indent:0;text-transform:none;fill:#ba1447;fill-opacity:1;stroke:none;stroke-opacity:1"
           id="path3575-5-30" />
        <path
           d="m 235.51,400.45 c 0,4.4852 -3.636,8.1212 -8.1212,8.1212 -4.4852,0 -8.1212,-3.636 -8.1212,-8.1212 0,-4.4852 3.636,-8.1212 8.1212,-8.1212 4.4852,0 8.1212,3.636 8.1212,8.1212 z"
           inkscape:connector-curvature="0"
           style="fill:#ba1447;fill-opacity:1;stroke:#ffffff;stroke-width:3.6;stroke-linecap:round;stroke-linejoin:round;stroke-opacity:1"
           id="path4370-2-9" />
        <path
           d="m 276.86,399.71 c 0,4.4852 -3.636,8.1212 -8.1212,8.1212 -4.4852,0 -8.1212,-3.636 -8.1212,-8.1212 0,-4.4852 3.636,-8.1212 8.1212,-8.1212 4.4852,0 8.1212,3.636 8.1212,8.1212 z"
           inkscape:connector-curvature="0"
           style="fill:#ba1447;fill-opacity:1;stroke:#ffffff;stroke-width:3.6;stroke-linecap:round;stroke-linejoin:round;stroke-opacity:1"
           id="path4373-6-2" />
      </g>
    </g>
    <g
       id="layer1-3-7-4"
       transform="matrix(0.19591179,0,0,0.17551677,17.8075,124.89975)"
       style="fill:#ba1447;fill-opacity:1">
      <path
         id="path2399-5-1"
         d="m 273.39,276.34 -231.05,204.59 24.338,27.45 207.65,-183.88 207.61,183.88 24.29,-27.45 -231,-204.59 -0.9,1.04 -0.94,-1.04 z"
         inkscape:connector-curvature="0"
         style="fill:#ba1447;fill-opacity:1" />
      <path
         id="rect2404-7-8"
         d="M 111.43,305.79 H 170 l -0.51,34.69 -58.06,52.45 z"
         inkscape:connector-curvature="0"
         style="fill:#ba1447;fill-opacity:1" />
    </g>
  </g>
</svg>
