<?xml version="1.0" encoding="UTF-8" standalone="no"?>
<!-- Created with Inkscape (http://www.inkscape.org/) -->

<svg
   xmlns:dc="http://purl.org/dc/elements/1.1/"
   xmlns:cc="http://creativecommons.org/ns#"
   xmlns:rdf="http://www.w3.org/1999/02/22-rdf-syntax-ns#"
   xmlns:svg="http://www.w3.org/2000/svg"
   xmlns="http://www.w3.org/2000/svg"
   xmlns:sodipodi="http://sodipodi.sourceforge.net/DTD/sodipodi-0.dtd"
   xmlns:inkscape="http://www.inkscape.org/namespaces/inkscape"
   width="200"
   height="200"
   viewBox="0 0 52.916666 52.916666"
   version="1.1"
   id="svg8"
   inkscape:version="0.92.3 (2405546, 2018-03-11)"
   sodipodi:docname="help.svg">
  <defs
     id="defs2" />
  <sodipodi:namedview
     id="base"
     pagecolor="#ffffff"
     bordercolor="#666666"
     borderopacity="1.0"
     inkscape:pageopacity="0.0"
     inkscape:pageshadow="2"
     inkscape:zoom="1.4"
     inkscape:cx="108.58692"
     inkscape:cy="120.40652"
     inkscape:document-units="mm"
     inkscape:current-layer="layer1"
     showgrid="false"
     fit-margin-top="0"
     fit-margin-left="0"
     fit-margin-right="0"
     fit-margin-bottom="0"
     inkscape:window-width="1920"
     inkscape:window-height="1012"
     inkscape:window-x="0"
     inkscape:window-y="0"
     inkscape:window-maximized="1"
     units="px" />
  <metadata
     id="metadata5">
    <rdf:RDF>
      <cc:Work
         rdf:about="">
        <dc:format>image/svg+xml</dc:format>
        <dc:type
           rdf:resource="http://purl.org/dc/dcmitype/StillImage" />
        <dc:title></dc:title>
      </cc:Work>
    </rdf:RDF>
  </metadata>
  <g
     inkscape:label="Layer 1"
     inkscape:groupmode="layer"
     id="layer1"
     transform="translate(-40.730664,-152.55057)">
    <path
       style="fill:#2c5aa0;fill-opacity:1;stroke-width:0.09597465"
       d="m 65.520684,202.79553 c -0.184753,-0.0215 -0.746203,-0.086 -1.247672,-0.14325 -5.172595,-0.59069 -10.210866,-3.07045 -14.012524,-6.89677 -9.214093,-9.27386 -9.173293,-24.34957 0.09094,-33.60115 3.599949,-3.59503 8.140305,-5.90121 13.249766,-6.72994 1.737568,-0.28182 5.237342,-0.30698 6.910173,-0.0497 5.294051,0.81432 9.853602,3.09831 13.535603,6.78031 3.671285,3.67128 5.980985,8.27056 6.773313,13.48761 0.242058,1.5938 0.245606,5.10959 0.0068,6.67024 -0.6652,4.34605 -2.374948,8.28448 -5.041395,11.61293 -3.791347,4.73262 -9.176233,7.79252 -15.29312,8.69013 -0.952944,0.13983 -4.281109,0.26003 -4.971825,0.17955 z"
       id="path826"
       inkscape:connector-curvature="0"
       sodipodi:nodetypes="ccssccscccccc" />
    <path
       style="fill:#ffffff;fill-opacity:1;stroke-width:0.07973991"
       d="m 65.803104,198.77188 c -0.153501,-0.0179 -0.619979,-0.0715 -1.036619,-0.11902 -4.297618,-0.49078 -8.483633,-2.55107 -11.642216,-5.73015 -7.655469,-7.70512 -7.621572,-20.23067 0.07555,-27.91729 2.990994,-2.98691 6.76332,-4.90298 11.008483,-5.59152 1.443648,-0.23416 4.351412,-0.25506 5.741272,-0.0412 4.398529,0.67657 8.186803,2.57421 11.245969,5.63337 3.050265,3.05025 4.969264,6.87155 5.627564,11.20609 0.201112,1.3242 0.20406,4.24528 0.0057,5.54193 -0.552677,3.61088 -1.973211,6.88311 -4.188611,9.64853 -3.150018,3.93207 -7.624015,6.47437 -12.70619,7.22014 -0.791748,0.11618 -3.556934,0.21604 -4.13081,0.14918 z"
       id="path826-7"
       inkscape:connector-curvature="0"
       sodipodi:nodetypes="ccssccscccccc" />
    <g
       id="g871"
       style="fill:#2c5aa0;fill-opacity:1;stroke:none"
       transform="matrix(0.77122297,0,0,0.85463298,-30.589025,41.193144)">
      <path
         id="path863"
         transform="matrix(0.26458333,0,0,0.26458333,40.730664,152.55057)"
         d="m 323.22461,-28.136719 c -7.20839,0.01512 -8.84593,0.126026 -12.03906,0.81836 -12.02215,2.606702 -20.72144,8.195293 -27.33399,17.5605465 -3.54625,5.0225008 -6.79474,12.3881459 -7.52929,17.0722656 l -0.32618,2.0742188 h 12.04297 12.04297 l 1.01953,-2.4492188 c 4.4668,-10.7143181 11.14777,-15.7607623 21.57813,-16.3007812 9.18894,-0.4757292 15.89203,2.3678732 20.26562,8.5957031 3.34999,4.7701417 3.72428,8.7907552 1.2793,13.746094 -1.67418,3.393071 -4.35803,6.131644 -13.01953,13.285156 -10.59126,8.747263 -14.31129,12.909225 -17.38477,19.451172 -2.94894,6.277001 -3.82093,9.877861 -3.83008,15.816406 l -0.008,4.080078 h 13.19336 13.19336 l 0.17969,-6.076172 c 0.26759,-9.181568 0.65989,-9.919036 8.98437,-16.90039 7.61496,-6.386306 16.76102,-15.581912 19.17969,-19.283203 4.18772,-6.408454 5.47577,-10.038032 5.48242,-15.4492191 0.008,-8.22984569 -3.94474,-16.3936423 -11.3457,-23.4238279 -6.72813,-6.39103 -13.51533,-9.845973 -23.19727,-11.806641 -3.57067,-0.723099 -5.13608,-0.824947 -12.42773,-0.810547 z"
         style="opacity:1;fill:#2c5aa0;fill-opacity:1;stroke:none;stroke-width:1.99999988;stroke-linecap:butt;stroke-linejoin:round;stroke-miterlimit:4;stroke-dasharray:none;stroke-dashoffset:0;stroke-opacity:1"
         inkscape:connector-curvature="0" />
      <path
         id="rect858"
         transform="matrix(0.26458333,0,0,0.26458333,40.730664,152.55057)"
         d="m 323.22461,73.412109 c -3.24344,3.8e-5 -3.84787,0.107784 -5.70899,1.021485 -2.65182,1.301782 -5.02558,3.675539 -6.32812,6.328125 -0.91434,1.861984 -1.02148,2.464789 -1.02148,5.708984 0,4.263307 0.62115,5.992806 3.14062,8.730469 3.0771,3.343521 5.95374,4.573946 10.2793,4.40039 2.17784,-0.08731 3.41598,-0.35065 4.96094,-1.058593 2.86461,-1.312744 5.15228,-3.545802 6.55664,-6.398438 1.0659,-2.165178 1.17968,-2.70725 1.17968,-5.666015 0,-2.825424 -0.14086,-3.57448 -1.02539,-5.488282 -1.22615,-2.653152 -3.67259,-5.1547 -6.41211,-6.55664 -1.79471,-0.918463 -2.358,-1.02156 -5.62109,-1.021485 z"
         style="opacity:1;fill:#2c5aa0;fill-opacity:1;stroke:none;stroke-width:1.99999988;stroke-linecap:butt;stroke-linejoin:round;stroke-miterlimit:4;stroke-dasharray:none;stroke-dashoffset:0;stroke-opacity:1"
         inkscape:connector-curvature="0" />
    </g>
  </g>
</svg>
