<?xml version="1.0" encoding="UTF-8" standalone="no"?>
<svg
   xmlns:dc="http://purl.org/dc/elements/1.1/"
   xmlns:cc="http://creativecommons.org/ns#"
   xmlns:rdf="http://www.w3.org/1999/02/22-rdf-syntax-ns#"
   xmlns:svg="http://www.w3.org/2000/svg"
   xmlns="http://www.w3.org/2000/svg"
   xmlns:xlink="http://www.w3.org/1999/xlink"
   xmlns:sodipodi="http://sodipodi.sourceforge.net/DTD/sodipodi-0.dtd"
   xmlns:inkscape="http://www.inkscape.org/namespaces/inkscape"
   width="68.822273"
   height="110.29964"
   id="svg2"
   version="1.1"
   inkscape:version="0.92.3 (2405546, 2018-03-11)"
   sodipodi:docname="marker_cultural_landscape_2.svg">
  <metadata
     id="metadata74">
    <rdf:RDF>
      <cc:Work
         rdf:about="">
        <dc:format>image/svg+xml</dc:format>
        <dc:type
           rdf:resource="http://purl.org/dc/dcmitype/StillImage" />
        <dc:title></dc:title>
      </cc:Work>
    </rdf:RDF>
  </metadata>
  <sodipodi:namedview
     pagecolor="#ffffff"
     bordercolor="#666666"
     borderopacity="1"
     objecttolerance="10"
     gridtolerance="10"
     guidetolerance="10"
     inkscape:pageopacity="0"
     inkscape:pageshadow="2"
     inkscape:window-width="1920"
     inkscape:window-height="1012"
     id="namedview72"
     showgrid="false"
     fit-margin-top="0"
     fit-margin-left="0"
     fit-margin-right="0"
     fit-margin-bottom="0"
     inkscape:zoom="8.8801408"
     inkscape:cx="20.442829"
     inkscape:cy="74.488642"
     inkscape:window-x="0"
     inkscape:window-y="0"
     inkscape:window-maximized="1"
     inkscape:current-layer="svg2" />
  <defs
     id="defs4">
    <linearGradient
       id="b">
      <stop
         offset="0"
         stop-color="#2e6c97"
         id="stop7" />
      <stop
         offset="1"
         stop-color="#3883b7"
         id="stop9" />
    </linearGradient>
    <linearGradient
       id="a">
      <stop
         offset="0"
         stop-color="#126fc6"
         id="stop12" />
      <stop
         offset="1"
         stop-color="#4c9cd1"
         id="stop14" />
    </linearGradient>
    <linearGradient
       xlink:href="#a"
       x1="351.138"
       y1="551.58899"
       x2="351.138"
       y2="512.92798"
       gradientUnits="userSpaceOnUse"
       gradientTransform="translate(-2.715,0)"
       id="linearGradient16" />
    <linearGradient
       xlink:href="#a"
       x1="318.57101"
       y1="550.052"
       x2="318.57101"
       y2="512.422"
       gradientUnits="userSpaceOnUse"
       gradientTransform="translate(94.732,2.054)"
       id="linearGradient18" />
    <linearGradient
       xlink:href="#a"
       gradientUnits="userSpaceOnUse"
       gradientTransform="matrix(-1,0,0,1,731.268,2.054)"
       x1="318.57101"
       y1="550.052"
       x2="318.57101"
       y2="512.422"
       id="linearGradient20" />
    <linearGradient
       xlink:href="#a"
       gradientUnits="userSpaceOnUse"
       gradientTransform="translate(94.232,2.054)"
       x1="318.57101"
       y1="550.052"
       x2="318.57101"
       y2="512.422"
       id="linearGradient22" />
    <linearGradient
       xlink:href="#a"
       gradientUnits="userSpaceOnUse"
       gradientTransform="translate(-28.58,-0.437)"
       x1="445.30099"
       y1="541.28601"
       x2="445.30099"
       y2="503.72"
       id="linearGradient24" />
    <linearGradient
       xlink:href="#b"
       gradientUnits="userSpaceOnUse"
       gradientTransform="translate(63,-0.438)"
       x1="351.74799"
       y1="522.77399"
       x2="351.74799"
       y2="503.72101"
       id="linearGradient26" />
    <linearGradient
       xlink:href="#a"
       gradientUnits="userSpaceOnUse"
       gradientTransform="translate(-28.58,-0.437)"
       x1="445.30099"
       y1="541.28601"
       x2="445.30099"
       y2="503.72"
       id="linearGradient28" />
    <linearGradient
       xlink:href="#b"
       gradientUnits="userSpaceOnUse"
       gradientTransform="translate(63,-0.438)"
       x1="351.74799"
       y1="522.77399"
       x2="351.74799"
       y2="503.72101"
       id="linearGradient30" />
    <linearGradient
       xlink:href="#a"
       gradientUnits="userSpaceOnUse"
       gradientTransform="translate(-28.58,-0.437)"
       x1="445.30099"
       y1="541.28601"
       x2="445.30099"
       y2="503.72"
       id="linearGradient32" />
    <linearGradient
       xlink:href="#b"
       gradientUnits="userSpaceOnUse"
       gradientTransform="translate(63,-0.438)"
       x1="351.74799"
       y1="522.77399"
       x2="351.74799"
       y2="503.72101"
       id="linearGradient34" />
    <linearGradient
       xlink:href="#a"
       id="c"
       gradientUnits="userSpaceOnUse"
       gradientTransform="matrix(2.7419235,0,0,2.7419235,-1186.6935,-1380.1445)"
       x1="445.30099"
       y1="541.28601"
       x2="445.30099"
       y2="503.72" />
    <linearGradient
       xlink:href="#b"
       id="d"
       gradientUnits="userSpaceOnUse"
       gradientTransform="matrix(2.7419235,0,0,2.7419235,-935.58818,-1380.1472)"
       x1="351.74799"
       y1="522.77399"
       x2="351.74799"
       y2="503.72101" />
    <linearGradient
       xlink:href="#a"
       gradientUnits="userSpaceOnUse"
       gradientTransform="translate(-28.846,-0.287)"
       x1="445.30099"
       y1="541.28601"
       x2="445.30099"
       y2="503.72"
       id="linearGradient38" />
    <linearGradient
       xlink:href="#b"
       gradientUnits="userSpaceOnUse"
       gradientTransform="translate(62.734,-0.288)"
       x1="351.74799"
       y1="522.77399"
       x2="351.74799"
       y2="503.72101"
       id="linearGradient40" />
  </defs>
  <rect
     y="13.489115"
     x="20.48884"
     height="29.627214"
     width="25.796108"
     id="rect44"
     style="fill:#ffffff" />
  <path
     d="m 34.531788,1.508058 c -18.02267,0 -33.02373,15.60429 -33.02373,32.53567 0,7.61706 4.28837,17.29605 7.38674,23.98086 l 25.51634,49.003662 25.3957,-49.003662 c 3.09837,-6.68481 7.50738,-15.87848 7.50738,-23.98086 0,-16.93138 -14.75977,-32.53567 -32.78243,-32.53567 z"
     id="path46"
     style="fill:#d4aa00;stroke:#aa8800;stroke-width:3.0161159;stroke-linecap:round"
     inkscape:connector-curvature="0"
     sodipodi:nodetypes="sscccss" />
  <path
     d="m 34.496138,4.543368 c -16.29799,0 -29.99116,14.3101 -29.99116,29.47568 0,6.4682 3.9566,15.9909 7.02755,22.62087 l 0.085,0.085 22.79361,43.785782 22.62087,-43.785782 0.085,-0.085 c 3.11208,-6.71223 7.19755,-15.64542 7.19755,-22.62087 0,-15.18477 -13.52043,-29.47568 -29.81842,-29.47568 z"
     id="path70"
     inkscape:connector-curvature="0"
     style="fill:none;stroke:#ffffff;stroke-width:3.0161159;stroke-linecap:round;stroke-opacity:0.122"
     sodipodi:nodetypes="sscccccss" />
  <path
     style="fill:#ffffff;stroke-width:0.06429421"
     d="m 32.716401,59.155953 c -8.27421,-0.498621 -15.794902,-5.229206 -19.949403,-12.548351 -1.592492,-2.805558 -2.594975,-5.937948 -3.0104101,-9.40643 -0.148859,-1.242799 -0.148859,-4.093623 0,-5.336423 C 10.435564,26.196008 12.71433,21.355358 16.577962,17.374543 22.36777,11.409106 30.559856,8.784575 38.760059,10.26797 c 4.053662,0.733296 7.715258,2.419565 11.044442,5.086285 2.059014,1.710407 3.741126,3.542954 5.204528,5.773364 2.107717,3.252099 3.317078,6.655421 3.815419,10.73713 0.150932,1.236254 0.152204,4.082026 0.0025,5.336423 -0.169529,1.419452 -0.534256,3.264596 -0.846942,4.284652 -0.28524,0.870174 -0.645475,1.981743 -1.073544,2.948436 -1.282214,2.851865 -2.832481,5.133064 -4.996286,7.351995 -2.765845,2.836309 -6.079659,4.911946 -9.862874,6.177711 -2.148807,0.666008 -4.396312,1.063653 -6.341196,1.193916 -1.040254,0.06755 -1.845107,0.06703 -2.98968,-0.0019 z M 31.461322,56.666245 C 30.55923,55.05126 29.113016,53.210627 27.529701,51.66237 25.548809,49.725342 24.446082,48.957534 20.034369,46.443521 19.440172,46.088759 19.18631,45.973333 18.86101,45.796923 c -2.014369,-1.152529 -4.279682,-2.582455 -5.390537,-3.402659 -0.25962,-0.191686 -0.487346,-0.333205 -0.506061,-0.314485 -0.10999,0.109985 1.078068,2.715473 1.755345,3.849584 0.954928,1.599052 1.512763,2.352985 2.872925,3.882887 0.92767,1.043437 2.218819,2.202556 3.396764,3.049404 2.943428,2.116082 6.398667,3.546181 9.830285,4.068666 0.932838,0.142034 0.88048,0.163585 0.641597,-0.264075 z m 10.995652,-1.270251 c 0.54741,-0.123406 1.237655,-0.351442 1.896676,-0.626612 0.247533,-0.103357 0.529627,-0.220658 0.626873,-0.260662 0.09725,-0.04002 0.176807,-0.104313 0.176807,-0.142896 0,-0.0386 -0.2503,-0.372193 -0.556222,-0.741357 -3.068714,-3.703119 -6.625158,-6.428365 -11.273911,-8.63903 -2.040343,-0.970261 -3.512624,-1.516065 -6.359321,-2.357521 -0.728109,-0.215223 -1.598698,-0.472615 -1.934634,-0.57197 -0.335936,-0.09936 -0.755454,-0.214261 -0.932267,-0.255345 -0.431283,-0.100205 -3.490764,-0.966587 -4.693479,-1.329093 -2.528017,-0.76197 -4.542069,-1.44802 -6.445491,-2.195544 -0.53927,-0.211785 -0.980487,-0.369779 -0.980487,-0.351095 0,0.07029 0.629094,0.780529 1.314778,1.484363 2.586296,2.519138 5.744946,4.000733 8.28685,5.603687 0.167283,0.106088 0.316384,0.192884 0.331351,0.192884 0.05833,0 2.032847,1.156903 2.732983,1.601298 1.787108,1.134335 2.944712,2.068135 4.949102,3.9923 0.05523,0.05305 0.286991,0.255568 0.514971,0.450054 0.22798,0.194491 0.473353,0.406388 0.545264,0.470877 0.07192,0.06449 0.449017,0.357412 0.837994,0.650942 3.147288,2.374988 6.129932,3.431667 9.279616,3.287554 0.601904,-0.034 0.832105,-0.05212 1.682547,-0.262834 z m 5.85977,-4.849945 c 0.664326,-0.137722 0.909706,-0.217085 1.608309,-0.520146 0.597523,-0.25921 1.60273,-0.923165 1.995064,-1.317763 l 0.301225,-0.302962 -0.204779,-0.168735 c -0.112635,-0.0928 -0.24237,-0.204438 -0.288313,-0.248078 -0.04592,-0.04362 -0.146768,-0.123642 -0.224064,-0.177781 -0.475966,-0.394705 -1.016365,-0.776502 -1.476402,-1.115634 -3.692795,-2.729297 -8.649449,-5.269966 -12.103553,-6.204021 -2.610849,-0.706024 -4.639812,-0.97332 -10.833576,-1.427232 -3.708921,-0.271813 -5.841416,-0.518756 -8.017432,-0.928414 -0.502108,-0.09453 -0.899914,-0.150821 -0.884017,-0.125095 0.04852,0.07854 1.507433,0.675124 2.186193,0.893989 0.351697,0.11341 1.40616,0.402721 2.343249,0.642919 8.9867,2.303487 14.534883,4.931778 19.48115,9.228636 0.371299,0.322545 0.822916,0.692627 1.003601,0.822394 0.612502,0.439908 1.746508,0.880846 2.578427,1.002564 0.710573,0.103966 1.892768,0.07848 2.534918,-0.05467 z m 5.009043,-6.099652 c 0.479286,-0.16776 0.852942,-0.363176 1.058224,-0.553424 0.352752,-0.286512 0.417123,-0.348246 0.578871,-0.583859 0.291154,-0.36389 0.62413,-0.973698 0.599117,-1.097198 -0.01297,-0.06397 -0.307516,-0.228079 -0.760536,-0.423731 -4.886196,-2.110293 -9.521657,-3.493978 -12.890988,-3.847971 -1.503208,-0.157925 -5.882921,-0.152533 -5.882921,0.0073 0,0.03158 0.0703,0.0574 0.156218,0.0574 0.205394,0 1.714441,0.34121 2.447699,0.553442 2.946698,0.852904 6.937609,2.750493 10.236034,4.866991 0.899126,0.576947 1.7088,0.932149 2.526367,1.108324 0.548199,0.118131 1.46329,0.07682 1.931915,-0.08721 z m 2.240382,-5.490116 c 0.35444,-0.200325 0.75497,-0.592882 0.907125,-0.889074 0.153221,-0.298265 0.301566,-0.842362 0.352056,-1.291317 l 0.04058,-0.360986 -0.373228,-0.04201 c -1.980687,-0.22288 -5.499033,-0.299997 -7.734922,-0.169535 -1.836469,0.107155 -3.150416,0.21544 -3.150416,0.259632 0,0.02345 0.166364,0.07875 0.369691,0.122922 1.244482,0.270312 4.524385,1.304745 6.734821,2.124062 1.127435,0.417899 1.280924,0.450705 1.993122,0.426021 0.473844,-0.01644 0.629808,-0.04896 0.861145,-0.179724 z M 28.50513,36.527675 c 2.207383,-0.218257 3.926968,-0.580949 5.497153,-1.159447 1.184975,-0.436576 2.381888,-1.053558 3.199933,-1.649499 l 0.370982,-0.270255 -0.210253,-0.15674 c -0.115631,-0.08621 -0.333205,-0.23663 -0.483492,-0.334273 -1.160763,-0.855753 -2.132153,-1.809055 -2.909312,-2.566402 -1.507949,-1.471164 -2.004925,-1.832156 -2.957538,-2.148261 -1.574833,-0.522572 -2.97235,-0.198165 -5.047093,1.171609 -0.665897,0.439629 -2.747863,2.015411 -2.786086,2.10871 -0.01179,0.02879 -0.04641,0.05231 -0.07699,0.05231 -0.04747,0 -0.990148,0.675483 -1.28549,0.921117 -0.417514,0.347241 -2.356733,1.51867 -3.020234,1.824431 -0.159135,0.07333 -0.453597,0.208751 -0.654374,0.300933 -0.440156,0.202087 -1.693082,0.618291 -1.861283,0.618291 -0.06623,0 -0.120409,0.02892 -0.120409,0.0643 0,0.03537 0.05063,0.06451 0.112516,0.06478 0.06187,2.61e-4 0.300573,0.05864 0.530427,0.129742 0.359119,0.111064 1.224458,0.318903 2.153852,0.517316 0.227075,0.04846 1.351817,0.238479 2.700357,0.456178 0.247533,0.03996 0.768317,0.09496 1.1573,0.122208 0.92247,0.06464 4.823078,0.01868 5.690037,-0.06705 z M 40.656736,34.95 c 3.676034,-0.503752 7.730088,-0.867095 9.674662,-0.867095 h 0.687415 l -1.435901,-1.045516 c -1.663584,-1.211303 -1.875028,-1.349893 -2.665205,-1.746949 -0.768547,-0.386191 -1.422331,-0.550836 -2.187273,-0.550836 -1.071509,0 -1.502562,0.272961 -3.453986,2.187173 -1.403784,1.377022 -1.882604,1.822477 -2.259884,2.102431 -0.115439,0.08565 -0.153694,0.143188 -0.09578,0.144044 0.05305,6.21e-4 0.834221,-0.09968 1.735947,-0.223252 z M 15.228373,33.370588 c 0.826831,-0.176913 1.383016,-0.353999 2.153858,-0.685777 1.423957,-0.612887 2.566744,-1.343415 5.12815,-3.278185 0.999351,-0.754858 2.142181,-1.584463 2.539621,-1.843555 1.234733,-0.804927 2.381007,-1.314779 3.41549,-1.51918 0.524136,-0.103556 1.77525,-0.09121 2.354233,0.02321 1.626855,0.321577 2.675635,0.967556 4.519228,2.783523 1.514885,1.492182 2.0998,1.998856 3.024956,2.620343 0.454,0.304972 0.849926,0.554497 0.879841,0.554497 0.02991,0 0.488512,-0.430359 1.019094,-0.956356 1.132288,-1.122496 1.630915,-1.515618 2.419162,-1.907294 0.786436,-0.390776 1.386218,-0.508039 2.346737,-0.458796 1.631261,0.08363 2.910634,0.631558 4.982802,2.134021 1.311744,0.9511 3.032377,2.085 3.497583,2.304914 0.381997,0.180574 0.485342,0.200647 1.03516,0.201075 0.539512,5.15e-4 0.653617,-0.02054 0.977782,-0.179742 0.401343,-0.197091 0.679324,-0.500854 0.904177,-0.988045 0.126862,-0.274884 0.142722,-0.410092 0.138236,-1.178484 -0.005,-0.802488 -0.02544,-0.946619 -0.275201,-1.910526 -0.705422,-2.722503 -1.653891,-4.858094 -3.165767,-7.128104 -2.907271,-4.365163 -7.343941,-7.650173 -12.338192,-9.135486 -2.18752,-0.650582 -4.129476,-0.927911 -6.493717,-0.927378 -3.065772,6.21e-4 -5.68949,0.513047 -8.429349,1.646042 -0.742504,0.295281 -0.924461,0.381854 -1.674343,0.76771 -3.093876,1.561262 -6.01571,4.10759 -8.195946,7.142623 -1.371374,1.909038 -2.554463,4.246951 -3.311803,6.544475 -0.721295,2.18819 -0.922538,3.543984 -0.637924,4.297732 0.23614,0.62539 0.773374,1.058776 1.499677,1.209783 0.346472,0.07203 0.95069,0.02439 1.686455,-0.133062 z M 38.020676,24.99387 c -1.429138,-0.430457 -2.474499,-1.411236 -2.990146,-2.805396 -0.238287,-0.644247 -0.295255,-1.733415 -0.129611,-2.477942 0.446014,-2.004776 2.243664,-3.437128 4.313692,-3.437128 1.774536,0 3.251285,0.907181 4.029469,2.475331 0.366973,0.739507 0.510683,1.571959 0.424773,2.460611 -0.170378,1.762468 -1.504417,3.314677 -3.26905,3.803686 -0.680534,0.188584 -1.71714,0.180238 -2.379127,-0.01917 z m 2.266983,-2.085751 c 0.50086,-0.246571 0.954425,-0.710269 1.193326,-1.219978 0.148996,-0.317891 0.172309,-0.450289 0.172309,-0.978433 0,-0.528144 -0.02333,-0.660547 -0.172309,-0.978433 -0.240595,-0.51332 -0.6921,-0.97322 -1.201865,-1.224203 -0.387475,-0.190775 -0.475041,-0.208397 -1.035457,-0.208397 -0.529664,0 -0.661758,0.02321 -0.979836,0.172309 -0.51332,0.240595 -0.97322,0.692106 -1.224203,1.201864 -0.190768,0.387476 -0.208397,0.475041 -0.208397,1.035464 0,0.528548 0.02339,0.662043 0.171049,0.977068 0.301777,0.643738 0.882726,1.159838 1.551142,1.377977 0.167226,0.0546 0.471616,0.08086 0.795222,0.06868 0.434683,-0.01638 0.595171,-0.05467 0.939019,-0.223916 z"
     id="path828"
     inkscape:connector-curvature="0"
     sodipodi:nodetypes="csssssccccccscccccccccssscsccccsssscscccsccssccccccccccccccssccccccccccccsssscsscccccccsscscccssccccsscssccsscccsscsscscscccscscsccscsccscccccccsscccssscccccscccccccscssscscccc" />
</svg>
