<?xml version="1.0" encoding="UTF-8" standalone="no"?>
<svg
   xmlns:dc="http://purl.org/dc/elements/1.1/"
   xmlns:cc="http://creativecommons.org/ns#"
   xmlns:rdf="http://www.w3.org/1999/02/22-rdf-syntax-ns#"
   xmlns:svg="http://www.w3.org/2000/svg"
   xmlns="http://www.w3.org/2000/svg"
   xmlns:xlink="http://www.w3.org/1999/xlink"
   xmlns:sodipodi="http://sodipodi.sourceforge.net/DTD/sodipodi-0.dtd"
   xmlns:inkscape="http://www.inkscape.org/namespaces/inkscape"
   width="50"
   height="80"
   id="svg2"
   version="1.1"
   inkscape:version="0.92.2 (5c3e80d, 2017-08-06)"
   sodipodi:docname="marker_cultural_landscape_danger.svg">
  <metadata
     id="metadata74">
    <rdf:RDF>
      <cc:Work
         rdf:about="">
        <dc:format>image/svg+xml</dc:format>
        <dc:type
           rdf:resource="http://purl.org/dc/dcmitype/StillImage" />
        <dc:title></dc:title>
      </cc:Work>
    </rdf:RDF>
  </metadata>
  <sodipodi:namedview
     pagecolor="#ffffff"
     bordercolor="#666666"
     borderopacity="1"
     objecttolerance="10"
     gridtolerance="10"
     guidetolerance="10"
     inkscape:pageopacity="0"
     inkscape:pageshadow="2"
     inkscape:window-width="1920"
     inkscape:window-height="1018"
     id="namedview72"
     showgrid="false"
     fit-margin-top="0"
     fit-margin-left="0"
     fit-margin-right="0"
     fit-margin-bottom="0"
     inkscape:zoom="5.0415794"
     inkscape:cx="-8.2895534"
     inkscape:cy="29.030519"
     inkscape:window-x="-8"
     inkscape:window-y="-8"
     inkscape:window-maximized="1"
     inkscape:current-layer="svg2"
     inkscape:snap-global="false" />
  <defs
     id="defs4">
    <linearGradient
       id="b">
      <stop
         offset="0"
         stop-color="#2e6c97"
         id="stop7" />
      <stop
         offset="1"
         stop-color="#3883b7"
         id="stop9" />
    </linearGradient>
    <linearGradient
       id="a">
      <stop
         offset="0"
         stop-color="#126fc6"
         id="stop12" />
      <stop
         offset="1"
         stop-color="#4c9cd1"
         id="stop14" />
    </linearGradient>
    <linearGradient
       xlink:href="#a"
       x1="351.138"
       y1="551.58899"
       x2="351.138"
       y2="512.92798"
       gradientUnits="userSpaceOnUse"
       gradientTransform="translate(-2.715)"
       id="linearGradient16" />
    <linearGradient
       xlink:href="#a"
       x1="318.57101"
       y1="550.052"
       x2="318.57101"
       y2="512.422"
       gradientUnits="userSpaceOnUse"
       gradientTransform="translate(94.732,2.054)"
       id="linearGradient18" />
    <linearGradient
       xlink:href="#a"
       gradientUnits="userSpaceOnUse"
       gradientTransform="matrix(-1,0,0,1,731.268,2.054)"
       x1="318.57101"
       y1="550.052"
       x2="318.57101"
       y2="512.422"
       id="linearGradient20" />
    <linearGradient
       xlink:href="#a"
       gradientUnits="userSpaceOnUse"
       gradientTransform="translate(94.232,2.054)"
       x1="318.57101"
       y1="550.052"
       x2="318.57101"
       y2="512.422"
       id="linearGradient22" />
    <linearGradient
       xlink:href="#a"
       gradientUnits="userSpaceOnUse"
       gradientTransform="translate(-28.58,-0.437)"
       x1="445.30099"
       y1="541.28601"
       x2="445.30099"
       y2="503.72"
       id="linearGradient24" />
    <linearGradient
       xlink:href="#b"
       gradientUnits="userSpaceOnUse"
       gradientTransform="translate(63,-0.438)"
       x1="351.74799"
       y1="522.77399"
       x2="351.74799"
       y2="503.72101"
       id="linearGradient26" />
    <linearGradient
       xlink:href="#a"
       gradientUnits="userSpaceOnUse"
       gradientTransform="translate(-28.58,-0.437)"
       x1="445.30099"
       y1="541.28601"
       x2="445.30099"
       y2="503.72"
       id="linearGradient28" />
    <linearGradient
       xlink:href="#b"
       gradientUnits="userSpaceOnUse"
       gradientTransform="translate(63,-0.438)"
       x1="351.74799"
       y1="522.77399"
       x2="351.74799"
       y2="503.72101"
       id="linearGradient30" />
    <linearGradient
       xlink:href="#a"
       gradientUnits="userSpaceOnUse"
       gradientTransform="translate(-28.58,-0.437)"
       x1="445.30099"
       y1="541.28601"
       x2="445.30099"
       y2="503.72"
       id="linearGradient32" />
    <linearGradient
       xlink:href="#b"
       gradientUnits="userSpaceOnUse"
       gradientTransform="translate(63,-0.438)"
       x1="351.74799"
       y1="522.77399"
       x2="351.74799"
       y2="503.72101"
       id="linearGradient34" />
    <linearGradient
       xlink:href="#a"
       id="c"
       gradientUnits="userSpaceOnUse"
       gradientTransform="matrix(2.7419235,0,0,2.7419235,-1186.6935,-1380.1445)"
       x1="445.30099"
       y1="541.28601"
       x2="445.30099"
       y2="503.72" />
    <linearGradient
       xlink:href="#b"
       id="d"
       gradientUnits="userSpaceOnUse"
       gradientTransform="matrix(2.7419235,0,0,2.7419235,-935.58818,-1380.1472)"
       x1="351.74799"
       y1="522.77399"
       x2="351.74799"
       y2="503.72101" />
    <linearGradient
       xlink:href="#a"
       gradientUnits="userSpaceOnUse"
       gradientTransform="translate(-28.846,-0.287)"
       x1="445.30099"
       y1="541.28601"
       x2="445.30099"
       y2="503.72"
       id="linearGradient38" />
    <linearGradient
       xlink:href="#b"
       gradientUnits="userSpaceOnUse"
       gradientTransform="translate(62.734,-0.288)"
       x1="351.74799"
       y1="522.77399"
       x2="351.74799"
       y2="503.72101"
       id="linearGradient40" />
    <filter
       y="-0.30000001"
       height="1.5"
       inkscape:menu-tooltip="Darkens the edge with an inner blur and adds a flexible glow"
       inkscape:menu="Shadows and Glows"
       inkscape:label="Dark and Glow"
       style="color-interpolation-filters:sRGB"
       id="filter965"
       width="1.54"
       x="-0.28999999">
      <feGaussianBlur
         stdDeviation="12"
         result="result6"
         id="feGaussianBlur955" />
      <feComposite
         result="result8"
         in="SourceGraphic"
         operator="destination-over"
         in2="result6"
         id="feComposite957" />
      <feComposite
         result="result9"
         operator="over"
         in2="SourceAlpha"
         in="result8"
         id="feComposite959" />
      <feColorMatrix
         values="1 0 0 0 0 0 1 0 0 0 0 0 1 0 0 0 0 0 1 0 "
         result="result10"
         id="feColorMatrix961" />
      <feBlend
         in="result10"
         mode="normal"
         in2="result6"
         id="feBlend963" />
    </filter>
    <filter
       y="-0.25"
       height="1.5"
       inkscape:menu-tooltip="Darkens the edge with an inner blur and adds a flexible glow"
       inkscape:menu="Shadows and Glows"
       inkscape:label="Dark and Glow"
       style="color-interpolation-filters:sRGB"
       id="filter1060">
      <feGaussianBlur
         stdDeviation="5"
         result="result6"
         id="feGaussianBlur1050" />
      <feComposite
         result="result8"
         in="SourceGraphic"
         operator="atop"
         in2="result6"
         id="feComposite1052" />
      <feComposite
         result="result9"
         operator="over"
         in2="SourceAlpha"
         in="result8"
         id="feComposite1054" />
      <feColorMatrix
         values="1 0 0 0 0 0 1 0 0 0 0 0 1 0 0 0 0 0 1 0 "
         result="result10"
         id="feColorMatrix1056" />
      <feBlend
         in="result10"
         mode="normal"
         in2="result6"
         id="feBlend1058" />
    </filter>
    <filter
       inkscape:collect="always"
       style="color-interpolation-filters:sRGB"
       id="filter2240"
       x="-0.18745202"
       width="1.374904"
       y="-0.11690177"
       height="1.2338035">
      <feGaussianBlur
         inkscape:collect="always"
         stdDeviation="5.1397907"
         id="feGaussianBlur2242" />
    </filter>
  </defs>
  <path
     d="m 165.74664,43.833795 c -18.02267,0 -33.02373,15.60429 -33.02373,32.53567 0,7.61706 4.28837,17.29605 7.38674,23.980865 l 25.51634,49.00366 25.3957,-49.00366 c 3.09837,-6.684815 7.50738,-15.878485 7.50738,-23.980865 0,-16.93138 -14.75977,-32.53567 -32.78243,-32.53567 z"
     id="path46-3"
     style="fill:#aa0000;stroke:#ff0000;stroke-width:3.0161159;stroke-linecap:round;filter:url(#filter2240)"
     inkscape:connector-curvature="0"
     sodipodi:nodetypes="sscccss"
     transform="matrix(0.51205549,0,0,0.51205549,-59.751836,-7.3519211)" />
  <path
     d="m 24.76414,20.159166 c -6.694287,0 -12.266236,5.796011 -12.266236,12.084952 0,2.829259 1.592859,6.424394 2.743708,8.90738 l 9.477714,18.201773 9.432903,-18.201773 c 1.150849,-2.482986 2.788519,-5.897855 2.788519,-8.90738 0,-6.288941 -5.482325,-12.084952 -12.176608,-12.084952 z"
     id="path46-9"
     style="opacity:1;fill:#d4aa00;fill-opacity:1;stroke:#ffffff;stroke-width:0.55715555;stroke-linecap:round;stroke-miterlimit:4;stroke-dasharray:none"
     inkscape:connector-curvature="0"
     sodipodi:nodetypes="sscccss" />
  <path
     inkscape:connector-curvature="0"
     style="color:#000000;font-style:normal;font-variant:normal;font-weight:normal;font-stretch:normal;font-size:medium;line-height:normal;font-family:'Bitstream Charter';-inkscape-font-specification:'Bitstream Charter';text-indent:0;text-align:start;text-decoration:none;text-decoration-line:none;letter-spacing:normal;word-spacing:normal;text-transform:none;writing-mode:lr-tb;direction:ltr;text-anchor:start;display:inline;overflow:visible;visibility:visible;fill:#ffffff;fill-opacity:1;fill-rule:nonzero;stroke:none;stroke-width:0.18702538;marker:none;enable-background:accumulate"
     d="m 26.779252,22.599214 -0.342567,0.727962 -0.27596,0.585224 c -0.958057,2.031264 -1.91997,4.061673 -2.8833,6.090134 -0.461494,-0.634235 -0.923175,-1.267601 -1.389313,-1.89841 l -0.333051,-0.452001 -0.294992,0.475791 c -1.815453,2.905644 -3.613028,5.821869 -5.4383,8.716509 l -0.361604,0.575708 0.680382,0.0048 c 5.70012,0.04834 11.400161,0.09361 17.099961,0.142736 l 0.609013,0.0048 -0.261685,-0.54716 c -2.148033,-4.570219 -4.30827,-9.133328 -6.466012,-13.69804 z m 0,6.446979 c 0.115283,2.89e-4 0.229136,0.05638 0.299752,0.147495 0.340452,0.428835 0.671812,0.779427 0.804086,0.832636 0.06614,0.02661 0.04999,0.03088 0.118949,-0.01426 0.06896,-0.04515 0.208198,-0.191099 0.361602,-0.490067 0.06468,-0.124494 0.202287,-0.206554 0.342571,-0.204589 0.140278,0.0021 0.27664,0.08785 0.337812,0.214105 l 3.102163,6.565928 c 0.113053,0.232403 -0.08891,0.550555 -0.347328,0.547161 L 17.782031,36.525644 c -0.13384,-0.0017 -0.263865,-0.07775 -0.328297,-0.195076 -0.06443,-0.117323 -0.06075,-0.271463 0.0095,-0.385392 l 2.759592,-4.429622 c 0.119732,-0.193186 0.42764,-0.230432 0.589984,-0.07137 0.24598,0.243879 0.458949,0.37296 0.713686,0.390151 0.25474,0.01719 0.611628,-0.07824 1.137143,-0.466277 0.16117,-0.12152 0.419362,-0.08268 0.537644,0.08089 l 0.242656,0.333055 0.999161,-2.112518 c 0.05843,-0.127686 0.192716,-0.218718 0.333054,-0.223622 0.140339,-0.0049 0.280119,0.07654 0.347328,0.199835 0.09888,0.17943 0.197378,0.279428 0.271203,0.323538 0.07382,0.0441 0.121524,0.05199 0.209348,0.0333 0.175652,-0.03735 0.514368,-0.27808 0.86594,-0.789812 0.06845,-0.100624 0.187585,-0.164778 0.309264,-0.166529 z"
     id="path3744" />
</svg>
