<?xml version="1.0" encoding="UTF-8" standalone="no"?>
<!-- Created with Inkscape (http://www.inkscape.org/) -->

<svg
   xmlns:dc="http://purl.org/dc/elements/1.1/"
   xmlns:cc="http://creativecommons.org/ns#"
   xmlns:rdf="http://www.w3.org/1999/02/22-rdf-syntax-ns#"
   xmlns:svg="http://www.w3.org/2000/svg"
   xmlns="http://www.w3.org/2000/svg"
   xmlns:sodipodi="http://sodipodi.sourceforge.net/DTD/sodipodi-0.dtd"
   xmlns:inkscape="http://www.inkscape.org/namespaces/inkscape"
   width="62.128307mm"
   height="67.076035mm"
   viewBox="0 0 62.128307 67.076035"
   version="1.1"
   id="svg8912"
   sodipodi:docname="running_sheep.svg"
   inkscape:version="0.92.3 (2405546, 2018-03-11)">
  <defs
     id="defs8906" />
  <sodipodi:namedview
     id="base"
     pagecolor="#ffffff"
     bordercolor="#666666"
     borderopacity="1.0"
     inkscape:pageopacity="0.0"
     inkscape:pageshadow="2"
     inkscape:zoom="0.98994949"
     inkscape:cx="158.23879"
     inkscape:cy="109.13087"
     inkscape:document-units="mm"
     inkscape:current-layer="layer1"
     showgrid="false"
     fit-margin-top="0"
     fit-margin-left="0"
     fit-margin-right="0"
     fit-margin-bottom="0"
     inkscape:window-width="1920"
     inkscape:window-height="1012"
     inkscape:window-x="0"
     inkscape:window-y="0"
     inkscape:window-maximized="1" />
  <metadata
     id="metadata8909">
    <rdf:RDF>
      <cc:Work
         rdf:about="">
        <dc:format>image/svg+xml</dc:format>
        <dc:type
           rdf:resource="http://purl.org/dc/dcmitype/StillImage" />
        <dc:title />
      </cc:Work>
    </rdf:RDF>
  </metadata>
  <g
     inkscape:label="Calque 1"
     inkscape:groupmode="layer"
     id="layer1"
     transform="translate(-112.5668,-128.14651)">
    <g
       id="g4446-1-62"
       style="fill:#2c5aa0;fill-opacity:1;stroke:#ffffff;stroke-opacity:1"
       transform="matrix(-0.16425751,0.02191404,0.02191404,0.16425751,201.89387,96.501276)">
      <ellipse
         transform="rotate(47.774974)"
         style="fill:#ffffff;fill-opacity:1;stroke:#2c5aa0;stroke-width:3.59998608;stroke-linecap:round;stroke-linejoin:round;stroke-opacity:1"
         id="path4375-4-1"
         cx="535.18085"
         cy="36.527287"
         rx="8.8594379"
         ry="78.258362" />
      <ellipse
         transform="rotate(31.326945)"
         style="fill:#ffffff;fill-opacity:1;stroke:#2c5aa0;stroke-width:3.59998608;stroke-linecap:round;stroke-linejoin:round;stroke-opacity:1"
         id="path4377-2-8"
         cx="541.69"
         cy="200.64671"
         rx="8.8594379"
         ry="78.258362" />
      <ellipse
         transform="rotate(-29.877628)"
         style="fill:#ffffff;fill-opacity:1;stroke:#2c5aa0;stroke-width:3.5999999;stroke-linecap:round;stroke-linejoin:round;stroke-opacity:1"
         id="path4379-0-7"
         cx="200.24266"
         cy="619.25085"
         rx="8.8594646"
         ry="78.258598" />
      <ellipse
         transform="rotate(-33.362599)"
         style="fill:#ffffff;fill-opacity:1;stroke:#2c5aa0;stroke-width:3.5999999;stroke-linecap:round;stroke-linejoin:round;stroke-opacity:1"
         id="path4381-4-9"
         cx="192.96184"
         cy="653.08136"
         rx="8.8594646"
         ry="78.258598" />
      <path
         inkscape:connector-curvature="0"
         style="fill:#2c5aa0;fill-opacity:1;stroke:none;stroke-width:3.5999999;stroke-linecap:round;stroke-linejoin:round;stroke-opacity:1"
         sodipodi:nodetypes="scscscsscscscsscssccscscsscsscscscsscscs"
         d="m 444.12,255.32 c -8.8362,0 -16.556,4.7937 -20.719,11.906 -4.358,-6.0257 -11.433,-9.9375 -19.438,-9.9375 -9.9371,0 -18.452,6.0458 -22.094,14.656 -4.2962,-6.4744 -11.679,-10.75 -20.031,-10.75 -12.726,0 -23.104,9.9139 -23.906,22.438 -3.3759,-1.8135 -7.2433,-2.8438 -11.344,-2.8438 -13.249,0 -23.969,10.751 -23.969,24 0,1.862 0.19235,3.6662 0.59375,5.4062 -12.848,0.4559 -23.125,11.009 -23.125,23.969 0,7.8822 3.7868,14.877 9.6562,19.25 -12.035,1.2879 -21.406,11.435 -21.406,23.812 0,11.426 7.9915,20.991 18.688,23.406 -3.693,4.2196 -5.9688,9.7333 -5.9688,15.781 0,13.249 10.751,23.969 24,23.969 5.3826,0 10.341,-1.7566 14.344,-4.75 -0.71978,2.2809 -1.125,4.7 -1.125,7.2188 0,13.249 10.751,23.969 24,23.969 6.1821,0 11.809,-2.3545 16.062,-6.1875 1.3296,0.5514 2.6721,1.0852 4.0312,1.5938 0.41899,12.883 10.985,23.219 23.969,23.219 9.9962,0 18.551,-6.1202 22.156,-14.812 3.0664,9.7172 12.144,16.75 22.875,16.75 11.724,0 21.47,-8.3843 23.562,-19.5 3.4061,9.1034 12.177,15.594 22.469,15.594 13.25,0 24,-10.751 24,-24 0,-2.4843 -0.3928,-4.8714 -1.0937,-7.125 3.9904,2.9616 8.9614,4.6875 14.312,4.6875 13.249,0 23.969,-10.751 23.969,-24 0,-6.0353 -2.2271,-11.534 -5.9063,-15.75 10.681,-2.4262 18.656,-11.991 18.656,-23.406 0,-9.2736 -5.2678,-17.32 -12.969,-21.312 8.2232,-3.8046 13.938,-12.125 13.938,-21.781 0,-12.612 -9.7294,-22.91 -22.094,-23.875 0.9856,-2.624 1.5312,-5.4691 1.5312,-8.4375 0,-13.249 -10.751,-23.969 -24,-23.969 -1.862,0 -3.6661,0.19235 -5.4062,0.59375 -0.4559,-12.848 -11.009,-23.125 -23.969,-23.125 -3.8662,0 -7.5156,0.93799 -10.75,2.5625 -2.2138,-10.962 -11.885,-19.219 -23.5,-19.219 z"
         id="path3563-0-20" />
      <g
         transform="rotate(32.204852,466.68322,473.69056)"
         id="g4390-5-2"
         style="fill:#2c5aa0;fill-opacity:1;stroke:#ffffff;stroke-opacity:1">
        <path
           d="m 342.21756,330.12658 c 25.07509,3.71308 36.00151,19.36521 24.40559,34.95979 -11.59628,15.59498 -33.34992,-0.46035 -58.42484,-4.17389 -25.07509,-3.71308 -43.9758,6.32176 -32.37988,-9.27282 11.59628,-15.59498 41.32439,-25.22709 66.39931,-21.51355 z"
           inkscape:connector-curvature="0"
           style="fill:#ffffff;fill-opacity:1;stroke:#2c5aa0;stroke-width:4.25500011;stroke-linecap:round;stroke-linejoin:round;stroke-opacity:1"
           sodipodi:nodetypes="sssss"
           id="path4385-3-3" />
        <path
           inkscape:connector-curvature="0"
           style="fill:#ffffff;fill-opacity:1;stroke:#2c5aa0;stroke-width:4.25500011;stroke-linecap:round;stroke-linejoin:round;stroke-opacity:1"
           sodipodi:nodetypes="sssss"
           d="m 186.713,307.56105 c -23.64582,-9.13482 -40.87001,-0.90619 -38.47201,18.37912 2.39813,19.28502 29.24019,16.0446 52.885,25.17941 23.64582,9.13482 35.13999,27.18554 32.74199,7.90023 -2.39813,-19.28502 -23.51014,-42.32425 -47.15594,-51.45917 z"
           id="path4388-7-7" />
        <path
           d="m 312.69,446.95 c 0,47.59 -26.304,68.169 -58.752,68.169 -32.448,0 -58.752,-20.579 -58.752,-68.169 0,-47.59 26.304,-104.17 58.752,-104.17 32.448,0 58.752,56.579 58.752,104.17 z"
           inkscape:connector-curvature="0"
           style="fill:#ffffff;fill-opacity:1;stroke:#2c5aa0;stroke-width:3.5999999;stroke-linecap:round;stroke-linejoin:round;stroke-opacity:1"
           sodipodi:nodetypes="sssss"
           id="path3568-9-5" />
        <ellipse
           transform="translate(154.07,-319.86)"
           style="fill:#ffffff;fill-opacity:1;stroke:#2c5aa0;stroke-width:3.5999999;stroke-linecap:round;stroke-linejoin:round;stroke-opacity:1"
           id="path3571-0-9"
           cx="61.199509"
           cy="714.05127"
           rx="33.782131"
           ry="27.906977" />
        <circle
           transform="translate(142.31,-313)"
           style="fill:#ffffff;fill-opacity:1;stroke:#2c5aa0;stroke-width:3.5999999;stroke-linecap:round;stroke-linejoin:round;stroke-opacity:1"
           id="path3573-6-2"
           cx="143.94125"
           cy="708.66571"
           r="36.23011" />
        <path
           d="m 226.94,482.41 c 7.07,7.1232 15.818,10.406 25.406,10.406 7.0217,0 13.593,-1.7639 19.375,-5.5 l 1.5312,2.625 c -6.2766,4.0204 -13.402,6 -20.906,6 -1.1115,0 -2.2182,-0.039 -3.3125,-0.125 -0.7534,7.1038 -0.27662,13.206 3.625,17.344 l -2.625,2.4688 c -5.0042,-5.3069 -5.3819,-12.673 -4.5625,-20.25 -7.6211,-1.2884 -14.673,-4.7876 -20.562,-10.625 0.67575,-0.78775 1.3579,-1.5629 2.0312,-2.3438 z"
           inkscape:connector-curvature="0"
           style="color:#000000;text-indent:0;text-transform:none;fill:#2c5aa0;fill-opacity:1;stroke:none;stroke-opacity:1"
           id="path3575-5-2" />
        <path
           d="m 235.51,400.45 c 0,4.4852 -3.636,8.1212 -8.1212,8.1212 -4.4852,0 -8.1212,-3.636 -8.1212,-8.1212 0,-4.4852 3.636,-8.1212 8.1212,-8.1212 4.4852,0 8.1212,3.636 8.1212,8.1212 z"
           inkscape:connector-curvature="0"
           style="fill:#2c5aa0;fill-opacity:1;stroke:#ffffff;stroke-width:3.5999999;stroke-linecap:round;stroke-linejoin:round;stroke-opacity:1"
           id="path4370-2-8" />
        <path
           d="m 276.86,399.71 c 0,4.4852 -3.636,8.1212 -8.1212,8.1212 -4.4852,0 -8.1212,-3.636 -8.1212,-8.1212 0,-4.4852 3.636,-8.1212 8.1212,-8.1212 4.4852,0 8.1212,3.636 8.1212,8.1212 z"
           inkscape:connector-curvature="0"
           style="fill:#2c5aa0;fill-opacity:1;stroke:#ffffff;stroke-width:3.5999999;stroke-linecap:round;stroke-linejoin:round;stroke-opacity:1"
           id="path4373-6-9" />
      </g>
    </g>
  </g>
</svg>
