<?xml version="1.0" encoding="UTF-8" standalone="no"?>
<!-- Created with Inkscape (http://www.inkscape.org/) -->

<svg
   xmlns:dc="http://purl.org/dc/elements/1.1/"
   xmlns:cc="http://creativecommons.org/ns#"
   xmlns:rdf="http://www.w3.org/1999/02/22-rdf-syntax-ns#"
   xmlns:svg="http://www.w3.org/2000/svg"
   xmlns="http://www.w3.org/2000/svg"
   xmlns:sodipodi="http://sodipodi.sourceforge.net/DTD/sodipodi-0.dtd"
   xmlns:inkscape="http://www.inkscape.org/namespaces/inkscape"
   width="55.221226mm"
   height="44.19202mm"
   viewBox="0 0 195.66576 156.5859"
   id="svg2"
   version="1.1"
   inkscape:version="0.92.3 (2405546, 2018-03-11)"
   sodipodi:docname="twinst.svg">
  <defs
     id="defs4" />
  <sodipodi:namedview
     id="base"
     pagecolor="#ffffff"
     bordercolor="#666666"
     borderopacity="1.0"
     inkscape:pageopacity="0.0"
     inkscape:pageshadow="2"
     inkscape:zoom="2.3211609"
     inkscape:cx="61.393743"
     inkscape:cy="137.1211"
     inkscape:document-units="px"
     inkscape:current-layer="layer1"
     showgrid="false"
     fit-margin-top="0"
     fit-margin-left="0"
     fit-margin-right="0"
     fit-margin-bottom="0"
     inkscape:window-width="1920"
     inkscape:window-height="1012"
     inkscape:window-x="0"
     inkscape:window-y="0"
     inkscape:window-maximized="1" />
  <metadata
     id="metadata7">
    <rdf:RDF>
      <cc:Work
         rdf:about="">
        <dc:format>image/svg+xml</dc:format>
        <dc:type
           rdf:resource="http://purl.org/dc/dcmitype/StillImage" />
        <dc:title></dc:title>
      </cc:Work>
    </rdf:RDF>
  </metadata>
  <g
     inkscape:label="Calque 1"
     inkscape:groupmode="layer"
     id="layer1"
     transform="translate(-183.57538,-395.55874)">
    <path
       style="fill:#2c5aa0;fill-opacity:1;stroke-width:0.42223164"
       d="m 228.64296,545.79218 c -17.65288,-1.92734 -31.36476,-13.37686 -35.99298,-30.05443 -0.82056,-2.95685 -0.91657,-4.5384 -1.06273,-17.50488 l -0.16067,-14.25434 4.56898,2.98314 c 15.71599,10.26115 37.48233,16.89848 64.31476,19.61185 3.36731,0.34052 7.42703,0.62287 9.02162,0.62746 l 2.89925,0.008 -0.30275,2.82704 c -1.85874,17.35667 -15.46198,31.95486 -32.72969,35.12357 -2.79527,0.51295 -8.51219,0.85536 -10.55579,0.63225 z"
       id="path898"
       inkscape:connector-curvature="0" />
    <path
       style="fill:#2c5aa0;fill-opacity:1;stroke-width:0.42223164"
       d="m 326.20302,545.59258 c -9.11848,-1.09009 -17.43424,-5.15427 -24.0187,-11.73872 -5.13881,-5.13882 -8.50162,-11.09221 -10.51881,-18.62213 -1.01962,-3.80615 -1.08467,-4.70733 -1.27243,-17.62818 -0.10883,-7.48933 -0.11954,-13.61696 -0.0238,-13.61696 0.0958,0 2.03378,1.2261 4.30672,2.72467 17.6664,11.64759 44.23495,18.98996 74.57007,20.60784 l 1.90004,0.10134 -0.13326,2.11116 c -0.52955,8.38909 -5.04045,17.88245 -11.65862,24.536 -8.48588,8.53124 -21.20521,12.95309 -33.15124,11.52498 z"
       id="path896"
       inkscape:connector-curvature="0" />
    <path
       style="fill:#2c5aa0;fill-opacity:1;stroke-width:0.42223164"
       d="m 264.32152,493.40942 c -30.88886,-2.67996 -55.94567,-11.48439 -69.37937,-24.37843 l -3.51124,-3.37018 0.15782,-15.221 c 0.14799,-14.27277 0.21735,-15.43062 1.11357,-18.58622 4.25468,-14.98106 15.76921,-25.8024 31.08499,-29.21362 4.07454,-0.90751 12.16336,-0.88518 16.46086,0.0454 14.67344,3.17755 26.45089,14.27215 30.65411,28.8768 1.42073,4.93652 1.65278,10.04193 1.65278,36.36292 v 25.77277 l -3.27229,-0.071 c -1.79976,-0.0391 -4.03232,-0.13692 -4.96123,-0.21751 z"
       id="path894"
       inkscape:connector-curvature="0" />
    <path
       style="fill:#ffffff;fill-opacity:1;stroke-width:0.42223164"
       d="m 238.30613,468.56039 c 3.58982,-0.8462 8.63623,-3.52191 11.56417,-6.13153 3.28197,-2.92517 6.3677,-7.68652 7.72454,-11.91912 1.30219,-4.06214 1.58256,-9.91086 0.67227,-14.02422 l -0.56063,-2.53338 h -5.34823 c -5.28426,0 -5.38609,-0.0183 -8.51495,-1.53135 -1.74171,-0.84223 -4.00496,-2.26083 -5.02944,-3.15246 -2.38131,-2.07249 -4.88044,-5.93706 -5.56393,-8.60385 -0.49304,-1.92376 -1.22912,-2.52148 -1.22912,-0.99811 0,1.31229 -2.58157,6.0145 -4.4319,8.07251 -2.3644,2.6298 -5.1041,4.3987 -8.65729,5.58964 -2.30797,0.77358 -3.38251,0.88642 -6.7557,0.70939 -2.20617,-0.11578 -4.42467,-0.34343 -4.93004,-0.5059 -0.79232,-0.25473 -0.98681,-0.0717 -1.41259,1.32906 -0.88648,2.91647 -1.01968,10.59364 -0.23712,13.66609 2.51902,9.88998 9.90143,17.39889 19.66893,20.00591 3.04512,0.81276 9.6503,0.8266 13.04103,0.0273 z"
       id="path892"
       inkscape:connector-curvature="0" />
    <path
       style="fill:#2c5aa0;fill-opacity:1;stroke-width:0.42223164"
       d="m 363.75708,493.41792 c -16.06682,-1.57471 -27.29335,-3.69067 -38.18023,-7.19614 -14.27131,-4.59524 -25.18227,-10.65091 -32.69099,-18.14377 l -2.68081,-2.67514 0.20149,-14.24757 c 0.16109,-11.39193 0.34647,-14.88148 0.92488,-17.41047 4.60924,-20.15291 23.57855,-33.88683 43.74026,-31.66828 16.83235,1.85219 30.33817,13.32735 35.09425,29.81768 0.94932,3.29147 0.96019,3.61589 1.09144,32.56414 l 0.13257,29.23954 -3.07752,-0.0676 c -1.69264,-0.0372 -3.74254,-0.13276 -4.55534,-0.21242 z"
       id="path890"
       inkscape:connector-curvature="0" />
    <path
       style="fill:#ffffff;fill-opacity:1;stroke-width:0.42223164"
       d="m 339.79186,467.84677 c 7.96256,-2.97715 13.63745,-8.6436 16.71715,-16.69227 0.97146,-2.53885 1.09115,-3.46254 1.10744,-8.54662 0.0207,-6.455 -0.59805,-9.56587 -1.802,-9.06004 -1.4343,0.60263 -7.37004,0.72468 -9.73148,0.2001 -6.53432,-1.45154 -11.82384,-6.1877 -14.18095,-12.6974 l -0.96359,-2.66117 -0.53757,1.65902 c -1.0112,3.12058 -2.63161,5.8358 -4.90536,8.21959 -4.12872,4.32854 -8.85857,6.13848 -15.12555,5.78801 -2.10389,-0.11767 -4.08991,-0.28417 -4.41335,-0.37001 -0.96443,-0.25596 -1.80921,3.60978 -1.85742,8.49967 -0.0505,5.12133 0.92078,9.03569 3.31152,13.34586 3.45512,6.22907 10.04593,11.29508 16.96598,13.04087 3.91507,0.98769 11.82924,0.61516 15.41518,-0.72561 z"
       id="path886"
       inkscape:connector-curvature="0" />
  </g>
</svg>
